<svg xmlns="http://www.w3.org/2000/svg" viewBox="0 0 202 100"><defs/><linearGradient id="a" x1="100.995" x2="100.995" y1="2" y2="79.72" gradientTransform="rotate(180 101 51)" gradientUnits="userSpaceOnUse"><stop offset="0" stop-color="gray" stop-opacity="0"/><stop offset="1" stop-color="gray"/></linearGradient><path fill="url(#a)" d="M202 77.21h-15.62l-32.06-20.66-41.17 6.73L77.8 47.95l-41.96 6.26L.01 22.28v75.5c0 1.22 1 2.22 2.23 2.22h197.53c1.23 0 2.23-1 2.23-2.22V77.21z" opacity=".3"/><path fill="gray" d="M154.26 56.85l-41.07 6.71-.08.01-35.36-15.33-41.88 6.25-.13.01L0 22.65v-.75l35.92 32.02 41.83-6.24.08-.02L113.19 63l41.09-6.72.1-.02 32.08 20.67H202v.56h-15.7l-32.04-20.64z"/></svg>