<svg xmlns="http://www.w3.org/2000/svg" width="202" height="100"><defs/><linearGradient id="a" gradientUnits="userSpaceOnUse" x1="101" y1="100" x2="101" y2="22.278" gradientTransform="matrix(-1 0 0 1 202 0)"><stop offset="0" stop-color="#d23c4f" stop-opacity="0"/><stop offset="1" stop-color="#d23c4f"/></linearGradient><path opacity=".3" fill="url(#a)" d="M202 79.4v18.38c0 1.23-1 2.22-2.23 2.22H2.23C1 100 0 99 0 97.78v-75.5l35.83 31.93 41.96-6.26 35.36 15.33 41.17-6.73 32.06 20.65H202v2.2z"/><path fill="#D23C4F" d="M186.3 77.49H202v-.56h-15.54l-32.08-20.67-.1.02L113.19 63 77.83 47.66l-.08.02-41.83 6.24L0 21.9v.75L35.74 54.5l.13-.01 41.88-6.25 35.36 15.33.08-.01 41.07-6.71z"/></svg>