<?xml version="1.0" encoding="utf-8"?>
<!-- Generator: Adobe Illustrator 24.3.0, SVG Export Plug-In . SVG Version: 6.00 Build 0)  -->
<svg version="1.1" id="Layer_1" xmlns="http://www.w3.org/2000/svg" xmlns:xlink="http://www.w3.org/1999/xlink" x="0px" y="0px"
	 viewBox="0 0 797.38 228.08" enable-background="new 0 0 797.38 228.08" xml:space="preserve">
<g>
	<rect fill="none" width="797.38" height="228.08"/>
	<g>
		<g>
			<g>
				
					<linearGradient id="SVGID_1_" gradientUnits="userSpaceOnUse" x1="584.6006" y1="161.7849" x2="584.6006" y2="66.4689" gradientTransform="matrix(-1 0 0 1 848.0551 0)">
					<stop  offset="0" style="stop-color:#00FFFF"/>
					<stop  offset="1" style="stop-color:#00A99D"/>
				</linearGradient>
				<path fill="url(#SVGID_1_)" d="M271.31,142.02c2.31-0.97,4.26-2.37,5.86-4.21c1.6-1.83,2.82-4.05,3.66-6.67
					c0.84-2.61,1.26-5.57,1.26-8.89V66.47h21.87v55.84c0,5.78-0.93,11.08-2.79,15.92c-1.85,4.83-4.53,8.99-8.03,12.49
					c-3.49,3.5-7.74,6.21-12.74,8.16c-5,1.94-10.66,2.91-16.96,2.91c-6.25,0-11.88-0.97-16.89-2.91c-5-1.94-9.25-4.66-12.75-8.16
					c-3.49-3.49-6.18-7.66-8.05-12.49c-1.88-4.83-2.82-10.14-2.82-15.92V66.47h21.87v55.84c0,3.32,0.42,6.29,1.26,8.9
					c0.84,2.61,2.06,4.82,3.65,6.63s3.55,3.2,5.86,4.18c2.31,0.97,4.93,1.45,7.86,1.45S269.01,142.99,271.31,142.02z"/>
				<path fill="#00FFFF" d="M303.96,66.47v55.84c0,5.78-0.93,11.08-2.79,15.92c-1.85,4.83-4.53,8.99-8.03,12.49
					c-3.49,3.5-7.74,6.21-12.74,8.16c-5,1.94-10.66,2.91-16.96,2.91c-6.25,0-11.88-0.97-16.89-2.91c-5-1.94-9.25-4.66-12.75-8.16
					c-3.49-3.49-6.18-7.66-8.05-12.49c-1.88-4.83-2.82-10.14-2.82-15.92V66.47h21.87v55.84c0,3.32,0.42,6.29,1.26,8.9
					c0.84,2.61,2.06,4.82,3.65,6.63c1.6,1.81,3.55,3.2,5.86,4.18c2.31,0.97,4.93,1.45,7.86,1.45s5.56-0.48,7.86-1.45
					c2.31-0.97,4.26-2.37,5.86-4.21c1.6-1.83,2.82-4.05,3.66-6.67c0.84-2.61,1.26-5.57,1.26-8.89V66.47H303.96 M303.96,64.81h-21.87
					c-0.92,0-1.66,0.74-1.66,1.66v55.78c0,3.13-0.4,5.95-1.18,8.39c-0.77,2.39-1.89,4.44-3.33,6.08c-1.44,1.66-3.16,2.89-5.25,3.77
					c-2.09,0.88-4.52,1.32-7.22,1.32c-2.69,0-5.12-0.45-7.22-1.32c-2.07-0.87-3.83-2.13-5.25-3.74c-1.43-1.63-2.55-3.66-3.32-6.04
					c-0.79-2.43-1.18-5.26-1.18-8.39V66.47c0-0.92-0.74-1.66-1.66-1.66h-21.87c-0.92,0-1.66,0.74-1.66,1.66v55.84
					c0,5.96,0.99,11.52,2.93,16.52c1.95,5.02,4.78,9.42,8.42,13.06c3.64,3.64,8.12,6.51,13.32,8.53c5.19,2.01,11.07,3.02,17.49,3.02
					c6.47,0,12.37-1.02,17.55-3.02c5.2-2.02,9.68-4.89,13.32-8.53c3.64-3.64,6.47-8.03,8.4-13.06c1.92-5,2.9-10.55,2.9-16.51V66.47
					C305.62,65.55,304.88,64.81,303.96,64.81L303.96,64.81z"/>
			</g>
			<g>
				
					<linearGradient id="SVGID_2_" gradientUnits="userSpaceOnUse" x1="673.6971" y1="160.7475" x2="673.6971" y2="66.4689" gradientTransform="matrix(-1 0 0 1 848.0551 0)">
					<stop  offset="0" style="stop-color:#00FFFF"/>
					<stop  offset="1" style="stop-color:#00A99D"/>
				</linearGradient>
				<path fill="url(#SVGID_2_)" d="M181.97,143.28V66.47h21.87v94.28h-58.96v-17.47H181.97z"/>
				<path fill="#00FFFF" d="M203.84,66.47v94.28h-58.96v-17.47h37.1V66.47H203.84 M203.84,64.81h-21.87c-0.92,0-1.66,0.74-1.66,1.66
					v75.15h-35.44c-0.92,0-1.66,0.74-1.66,1.66v17.47c0,0.92,0.74,1.66,1.66,1.66h58.96c0.92,0,1.66-0.74,1.66-1.66V66.47
					C205.5,65.55,204.76,64.81,203.84,64.81L203.84,64.81z"/>
			</g>
			<g>
				
					<linearGradient id="SVGID_3_" gradientUnits="userSpaceOnUse" x1="753.1888" y1="160.7475" x2="753.1888" y2="80.752" gradientTransform="matrix(-1 0 0 1 848.0551 0)">
					<stop  offset="0" style="stop-color:#00FFFF"/>
					<stop  offset="1" style="stop-color:#00A99D"/>
				</linearGradient>
				<path fill="url(#SVGID_3_)" d="M102.48,143.28V80.75h21.87v80H65.38v-17.47H102.48z"/>
				<path fill="#00FFFF" d="M124.35,80.75v80H65.38v-17.47h37.1V80.75H124.35 M124.35,79.09h-21.87c-0.92,0-1.66,0.74-1.66,1.66
					v60.87H65.38c-0.92,0-1.66,0.74-1.66,1.66v17.47c0,0.92,0.74,1.66,1.66,1.66h58.96c0.92,0,1.66-0.74,1.66-1.66v-80
					C126.01,79.84,125.26,79.09,124.35,79.09L124.35,79.09z"/>
			</g>
			<g>
				
					<linearGradient id="SVGID_4_" gradientUnits="userSpaceOnUse" x1="495.1165" y1="160.7475" x2="495.1165" y2="66.4689" gradientTransform="matrix(-1 0 0 1 848.0551 0)">
					<stop  offset="0" style="stop-color:#00FFFF"/>
					<stop  offset="1" style="stop-color:#00A99D"/>
				</linearGradient>
				<path fill="url(#SVGID_4_)" d="M320.91,119.27c2.98-3.36,7.57-5.8,13.79-7.31c-2.85-1.04-5.29-2.26-7.31-3.69
					c-2.03-1.42-3.69-2.99-4.98-4.69c-1.3-1.71-2.24-3.54-2.85-5.5c-0.6-1.96-0.91-4-0.91-6.11c0-3.88,0.66-7.4,1.97-10.55
					c1.32-3.15,3.42-5.82,6.31-8.03c2.89-2.2,6.62-3.9,11.2-5.11c4.57-1.21,10.12-1.81,16.63-1.81h34.68v4.64
					c-4.94,2.52-12.55,6.8-16.28,10.21c-6.3,3.51-12.24,7.52-17.27,12.75c-1.88,1.95-3.56,4.03-4.42,6.7
					c-0.26,0.8-0.99,1.59-1.72,2.06c-3.04,1.97-5.52,4.41-7.26,7.6c-0.26,0.48-0.64,0.95-1.08,1.26c-3.69,2.63-3.51,3.26-5.48,7.21
					c-1.16,3.09-2.88,7.68-6.22,12.79c-2.25,3.44-3.15,5.02-8.73,7.55c1.34-0.27,2.73-0.38,4-0.84c2.75-0.97,5.24-2.45,7.29-4.55
					c1.62-1.67,3.14-3.43,4.69-5.17c2.01-2.77,1.47-2.2,3.67-4.48c0.87-0.9,1.9-1.09,3.12-1.92c0.75,2.14,1.38,3.95,2,5.76
					c0.66,1.93,1.91,3.39,3.59,4.5c2.79,1.85,5.64,3.62,8.36,5.57c1.26,0.9,2.48,2,3.37,3.25c1.89,2.65,3.65,5.41,5.29,8.23
					c2.28,3.92,7.58,6.03,11.93,2.53c1.23-0.99,1.87-2.29,2.4-3.68c0.73-1.88,1.41-3.78,2.11-5.68c0.19,0.02,0.37,0.04,0.56,0.06
					c2.03,2.28,4.54,5.9,6.09,9.73v8.2h-37.66c-5.65,0-10.68-0.72-15.08-2.17c-4.4-1.44-8.1-3.45-11.1-6.01
					c-3-2.57-5.27-5.58-6.82-9.03c-1.55-3.45-2.33-7.18-2.33-11.19C316.45,126.99,317.93,122.63,320.91,119.27z"/>
				<path fill="#00FFFF" d="M389.43,66.47v4.64c-4.94,2.52-12.55,6.8-16.28,10.21c-6.3,3.51-12.24,7.52-17.27,12.75
					c-1.88,1.95-3.56,4.03-4.42,6.7c-0.26,0.8-0.99,1.59-1.72,2.06c-3.04,1.97-5.52,4.41-7.26,7.6c-0.26,0.48-0.64,0.95-1.08,1.26
					c-3.69,2.63-3.51,3.26-5.48,7.21c-1.16,3.09-2.88,7.68-6.22,12.79c-2.25,3.44-3.15,5.02-8.73,7.55c1.34-0.27,2.73-0.38,4-0.84
					c2.75-0.97,5.24-2.45,7.29-4.55c1.62-1.67,3.14-3.43,4.69-5.17c2.01-2.77,1.47-2.2,3.67-4.48c0.87-0.9,1.9-1.09,3.12-1.92
					c0.75,2.14,1.38,3.95,2,5.76c0.66,1.93,1.91,3.39,3.59,4.5c2.79,1.85,5.64,3.62,8.36,5.57c1.26,0.9,2.48,2,3.37,3.25
					c1.89,2.65,3.65,5.41,5.29,8.23c1.47,2.53,4.2,4.31,7.12,4.31c1.6,0,3.27-0.53,4.81-1.77c1.23-0.99,1.87-2.29,2.4-3.68
					c0.73-1.88,1.41-3.78,2.11-5.68c0.19,0.02,0.37,0.04,0.56,0.06c2.03,2.28,4.54,5.9,6.09,9.73v8.2h-37.66
					c-5.65,0-10.68-0.72-15.08-2.17c-4.4-1.44-8.1-3.45-11.1-6.01c-3-2.57-5.27-5.58-6.82-9.03c-1.55-3.45-2.33-7.18-2.33-11.19
					c0-5.35,1.48-9.71,4.46-13.07c2.98-3.36,7.57-5.8,13.79-7.31c-2.85-1.04-5.29-2.26-7.31-3.69c-2.03-1.42-3.69-2.99-4.98-4.69
					c-1.3-1.71-2.24-3.54-2.85-5.5c-0.6-1.96-0.91-4-0.91-6.11c0-3.88,0.66-7.4,1.97-10.55c1.32-3.15,3.42-5.82,6.31-8.03
					c2.89-2.2,6.62-3.9,11.2-5.11c4.57-1.21,10.12-1.81,16.63-1.81H389.43 M389.43,64.81h-34.68c-6.62,0-12.36,0.63-17.05,1.87
					c-4.77,1.26-8.73,3.08-11.78,5.4c-3.11,2.37-5.41,5.3-6.83,8.7c-1.4,3.34-2.1,7.1-2.1,11.19c0,2.25,0.33,4.47,0.98,6.6
					c0.66,2.15,1.71,4.17,3.11,6.02c1.4,1.84,3.2,3.53,5.35,5.04c1.04,0.73,2.19,1.42,3.44,2.05c-4.36,1.58-7.77,3.76-10.2,6.49
					c-3.24,3.66-4.88,8.43-4.88,14.17c0,4.23,0.83,8.23,2.47,11.87c1.64,3.66,4.09,6.89,7.26,9.61c3.16,2.7,7.08,4.83,11.66,6.33
					c4.54,1.49,9.78,2.25,15.59,2.25h37.66c0.92,0,1.66-0.74,1.66-1.66v-8.2c0-0.21-0.04-0.42-0.12-0.62
					c-1.41-3.49-3.8-7.31-6.39-10.21c-0.28-0.31-0.66-0.5-1.07-0.55l-0.56-0.06c-0.06-0.01-0.11-0.01-0.17-0.01
					c-0.69,0-1.31,0.43-1.55,1.08c-0.21,0.57-0.42,1.14-0.63,1.71c-0.47,1.3-0.96,2.64-1.47,3.94c-0.5,1.28-1.01,2.28-1.9,2.99
					c-1.17,0.93-2.44,1.41-3.77,1.41c-2.23,0-4.46-1.37-5.69-3.48c-1.71-2.94-3.51-5.75-5.37-8.36c-0.92-1.29-2.18-2.51-3.76-3.64
					c-1.94-1.39-3.96-2.7-5.92-3.98c-0.83-0.54-1.67-1.08-2.49-1.63c-1.46-0.97-2.42-2.17-2.94-3.66c-0.42-1.24-0.86-2.48-1.33-3.82
					l-0.68-1.94c-0.17-0.49-0.55-0.87-1.04-1.03c-0.17-0.06-0.35-0.08-0.52-0.08c-0.33,0-0.65,0.1-0.93,0.29
					c-0.4,0.27-0.79,0.47-1.2,0.67c-0.69,0.34-1.47,0.73-2.18,1.47l-0.06,0.06c-1.73,1.79-1.8,1.87-2.85,3.33
					c-0.22,0.31-0.5,0.7-0.86,1.19c-0.35,0.39-0.7,0.79-1.05,1.18c-1.14,1.29-2.33,2.63-3.54,3.87c-0.05,0.05-0.09,0.09-0.14,0.14
					l0.15-0.24c3.42-5.22,5.19-9.91,6.36-13.04c0.31-0.62,0.57-1.16,0.79-1.64c1.15-2.43,1.39-2.93,4.13-4.88
					c0.61-0.44,1.17-1.08,1.57-1.81c1.51-2.77,3.71-5.06,6.71-7.01c0.88-0.57,1.98-1.65,2.4-2.94c0.8-2.47,2.41-4.37,4.03-6.06
					c4.31-4.48,9.67-8.43,16.88-12.45c0.11-0.06,0.22-0.14,0.31-0.22c3.36-3.07,10.42-7.15,15.92-9.96c0.56-0.28,0.9-0.85,0.9-1.48
					v-4.64C391.09,65.55,390.35,64.81,389.43,64.81L389.43,64.81z"/>
			</g>
			<g>
				<path fill="#00FFFF" d="M364.12,119.39c1.24-2.5,2.53-5.05,3.75-7.63c0.32-0.67,0.55-1.45,0.57-2.18
					c0.01-0.52-0.27-1.21-0.66-1.54c-0.26-0.22-1.02-0.06-1.43,0.17c-0.66,0.36-1.2,0.92-1.8,1.37c-1.3,0.97-3.65,0.91-4.91-0.1
					c-1.23-0.98-1.72-2.48-1.05-3.86c1.46-3.01,5.1-5.9,9.12-4.93c2.83,0.68,4.83,3.08,5.09,6c0.23,2.65-0.65,4.95-1.97,7.12
					C369.21,116.49,366.74,118.46,364.12,119.39z"/>
				<path fill="#00FFFF" d="M366.12,101.84L366.12,101.84c0.43,0,0.85,0.05,1.27,0.15c2.25,0.54,3.85,2.43,4.05,4.8
					c0.18,2.03-0.37,3.98-1.78,6.3c-0.62,1.03-1.4,1.97-2.28,2.76c0.58-1.16,1.15-2.34,1.71-3.53c0.3-0.64,0.67-1.64,0.7-2.73
					c0.03-0.96-0.45-2.03-1.15-2.62c-0.33-0.28-0.76-0.42-1.26-0.42c-0.54,0-1.19,0.17-1.68,0.44c-0.54,0.3-1,0.68-1.4,1.02
					c-0.19,0.16-0.37,0.31-0.57,0.46c-0.36,0.27-0.94,0.43-1.56,0.43c-0.68,0-1.31-0.19-1.7-0.5c-0.3-0.24-1.22-1.1-0.68-2.21
					C360.83,104.1,363.24,101.84,366.12,101.84 M366.12,100.49c-3.36,0-6.26,2.51-7.53,5.12c-0.67,1.38-0.18,2.88,1.05,3.86
					c0.66,0.53,1.61,0.79,2.55,0.79c0.87,0,1.74-0.23,2.37-0.7c0.61-0.45,1.15-1.01,1.8-1.37c0.27-0.15,0.7-0.27,1.03-0.27
					c0.17,0,0.31,0.03,0.4,0.1c0.39,0.33,0.67,1.01,0.66,1.54c-0.02,0.74-0.25,1.51-0.57,2.18c-1.22,2.58-2.51,5.13-3.75,7.63
					c2.62-0.93,5.08-2.9,6.71-5.59c1.31-2.17,2.2-4.48,1.97-7.12c-0.25-2.92-2.26-5.32-5.09-6
					C367.17,100.55,366.64,100.49,366.12,100.49L366.12,100.49z"/>
			</g>
			<g>
				<path fill="#00FFFF" d="M124.45,60.65c0.55-0.02,1.43-0.24,1.54-0.57c0.16-0.48-0.09-1.26-0.43-1.72
					c-3.34-4.57-6.72-9.12-10.13-13.64c-1.21-1.6-2.8-1.57-3.99,0.03c-3.4,4.53-6.79,9.07-10.14,13.63
					c-0.32,0.43-0.64,1.27-0.44,1.58c0.27,0.42,1.04,0.67,1.61,0.7L124.45,60.65z"/>
				<path fill="#00FFFF" d="M113.45,45.19c0.1,0,0.34,0.11,0.66,0.52c3.4,4.51,6.71,8.97,9.86,13.28l-21.07,0
					c3.32-4.52,6.69-9.02,9.87-13.25C113.09,45.3,113.35,45.19,113.45,45.19 M113.45,43.53c-0.71,0-1.41,0.41-2.01,1.21
					c-3.4,4.53-6.79,9.07-10.14,13.63c-0.32,0.43-0.64,1.27-0.44,1.58c0.27,0.42,1.04,0.67,1.61,0.7l21.98,0
					c0.55-0.02,1.43-0.24,1.54-0.57c0.16-0.48-0.09-1.26-0.43-1.72c-3.34-4.57-6.72-9.12-10.13-13.64
					C114.83,43.92,114.14,43.53,113.45,43.53L113.45,43.53z"/>
			</g>
			<g>
				<path fill="#00FFFF" d="M102.56,73.65h21.88c0.55,0,1-0.45,1-1v-5.64c0-0.55-0.45-1-1-1h-21.88c-0.55,0-1,0.45-1,1v5.64
					C101.56,73.2,102.01,73.65,102.56,73.65z"/>
				<path fill="#00FFFF" d="M124.7,74.51h-22.4c-0.89,0-1.61-0.72-1.61-1.61v-6.16c0-0.89,0.72-1.61,1.61-1.61h22.4
					c0.89,0,1.61,0.72,1.61,1.61v6.16C126.3,73.79,125.58,74.51,124.7,74.51z M102.43,72.78h22.15v-5.91h-22.15V72.78z"/>
			</g>
		</g>
		<g>
			<g>
				<linearGradient id="SVGID_5_" gradientUnits="userSpaceOnUse" x1="516.22" y1="161.6702" x2="516.22" y2="67.3916">
					<stop  offset="0" style="stop-color:#ED1E79"/>
					<stop  offset="1" style="stop-color:#961A4D"/>
				</linearGradient>
				<path fill="url(#SVGID_5_)" d="M507.87,84.22v22h29.63v16.18h-29.63v22.45h38.69v16.82h-60.69V67.39h60.69v16.82H507.87z"/>
				<path fill="#ED1E79" d="M546.57,67.39v16.82h-38.69v22h29.63v16.18h-29.63v22.45h38.69v16.82h-60.69V67.39H546.57 M546.57,65.73
					h-60.69c-0.92,0-1.66,0.74-1.66,1.66v94.28c0,0.92,0.74,1.66,1.66,1.66h60.69c0.92,0,1.66-0.74,1.66-1.66v-16.82
					c0-0.92-0.74-1.66-1.66-1.66h-37.04v-19.14h27.97c0.92,0,1.66-0.74,1.66-1.66v-16.18c0-0.92-0.74-1.66-1.66-1.66h-27.97V85.87
					h37.04c0.92,0,1.66-0.74,1.66-1.66V67.39C548.22,66.48,547.48,65.73,546.57,65.73L546.57,65.73z"/>
			</g>
			<g>
				<linearGradient id="SVGID_6_" gradientUnits="userSpaceOnUse" x1="600.4164" y1="161.6702" x2="600.4164" y2="67.3916">
					<stop  offset="0" style="stop-color:#ED1E79"/>
					<stop  offset="1" style="stop-color:#961A4D"/>
				</linearGradient>
				<path fill="url(#SVGID_6_)" d="M648.1,161.67h-16.95c-1.9,0-3.43-0.44-4.6-1.33c-1.16-0.88-2.05-2.02-2.65-3.4l-5.56-16.43
					h-35.85l-5.57,16.43c-0.47,1.21-1.33,2.3-2.55,3.27c-1.23,0.97-2.75,1.45-4.56,1.45h-17.08l36.49-94.28h22.39L648.1,161.67z
					 M613.35,125.63l-8.74-25.82c-0.64-1.64-1.34-3.57-2.07-5.79c-0.73-2.22-1.46-4.63-2.2-7.21c-0.64,2.63-1.34,5.07-2.07,7.31
					s-1.42,4.19-2.07,5.82l-8.67,25.69H613.35z"/>
				<path fill="#ED1E79" d="M611.61,67.39l36.49,94.28h-16.95c-1.9,0-3.43-0.44-4.6-1.33c-1.16-0.88-2.05-2.02-2.65-3.4l-5.56-16.43
					h-35.85l-5.57,16.43c-0.47,1.21-1.33,2.3-2.55,3.27c-1.23,0.97-2.75,1.45-4.56,1.45h-17.08l36.49-94.28H611.61 M587.54,125.63
					h25.82l-8.74-25.82c-0.64-1.64-1.34-3.57-2.07-5.79c-0.73-2.22-1.46-4.63-2.2-7.21c-0.64,2.63-1.34,5.07-2.07,7.31
					c-0.73,2.24-1.42,4.19-2.07,5.82L587.54,125.63 M611.61,65.73h-22.39c-0.68,0-1.3,0.42-1.55,1.06l-36.49,94.28
					c-0.2,0.51-0.13,1.08,0.18,1.54c0.31,0.45,0.82,0.72,1.37,0.72h17.08c2.18,0,4.06-0.61,5.58-1.81c1.46-1.16,2.49-2.49,3.07-3.97
					c0.01-0.02,0.02-0.05,0.03-0.07l5.18-15.31h33.47l5.18,15.31c0.02,0.05,0.03,0.09,0.05,0.13c0.72,1.63,1.78,3,3.17,4.05
					c1.45,1.1,3.34,1.66,5.6,1.66h16.95c0.55,0,1.06-0.27,1.37-0.72c0.31-0.45,0.38-1.03,0.18-1.54l-36.49-94.28
					C612.91,66.15,612.3,65.73,611.61,65.73L611.61,65.73z M597.77,100.51c0.65-1.65,1.35-3.62,2.09-5.88
					c0.19-0.59,0.38-1.19,0.57-1.8c0.19,0.59,0.37,1.16,0.55,1.71c0.7,2.12,1.4,4.08,2.09,5.84l7.98,23.59h-21.2L597.77,100.51
					L597.77,100.51z"/>
			</g>
			<g>
				<linearGradient id="SVGID_7_" gradientUnits="userSpaceOnUse" x1="693.429" y1="161.6702" x2="693.429" y2="67.3916">
					<stop  offset="0" style="stop-color:#ED1E79"/>
					<stop  offset="1" style="stop-color:#961A4D"/>
				</linearGradient>
				<path fill="url(#SVGID_7_)" d="M731.99,161.67h-19.8c-3.67,0-6.3-1.38-7.89-4.14l-15.66-27.37c-0.73-1.16-1.55-2.02-2.46-2.56
					c-0.91-0.54-2.2-0.81-3.88-0.81h-5.57v19.88h-21.87V67.39h30.67c6.81,0,12.63,0.71,17.44,2.11c4.81,1.4,8.74,3.35,11.77,5.86
					c3.04,2.5,5.25,5.46,6.63,8.86c1.38,3.41,2.07,7.12,2.07,11.13c0,3.06-0.41,5.95-1.23,8.67c-0.82,2.72-2.03,5.23-3.62,7.54
					c-1.6,2.31-3.57,4.37-5.92,6.18c-2.35,1.82-5.06,3.3-8.12,4.47c1.42,0.74,2.76,1.65,4.01,2.75c1.25,1.1,2.37,2.4,3.36,3.91
					L731.99,161.67z M685.53,111.72c2.98,0,5.51-0.38,7.6-1.13c2.09-0.76,3.81-1.8,5.14-3.14c1.34-1.34,2.31-2.9,2.91-4.69
					c0.6-1.79,0.91-3.72,0.91-5.79c0-4.14-1.35-7.38-4.04-9.7c-2.7-2.33-6.87-3.5-12.52-3.5h-8.8v27.96H685.53z"/>
				<path fill="#ED1E79" d="M685.53,67.39c6.81,0,12.63,0.71,17.44,2.11c4.81,1.4,8.74,3.35,11.77,5.86
					c3.04,2.5,5.25,5.46,6.63,8.86c1.38,3.41,2.07,7.12,2.07,11.13c0,3.06-0.41,5.95-1.23,8.67c-0.82,2.72-2.03,5.23-3.62,7.54
					c-1.6,2.31-3.57,4.37-5.92,6.18c-2.35,1.82-5.06,3.3-8.12,4.47c1.42,0.74,2.76,1.65,4.01,2.75c1.25,1.1,2.37,2.4,3.36,3.91
					l20.06,32.81h-19.8c-3.67,0-6.3-1.38-7.89-4.14l-15.66-27.37c-0.73-1.16-1.55-2.02-2.46-2.56c-0.91-0.54-2.2-0.81-3.88-0.81
					h-5.57v19.88h-21.87V67.39H685.53 M676.73,111.72h8.8c2.98,0,5.51-0.38,7.6-1.13c2.09-0.76,3.81-1.8,5.14-3.14
					c1.34-1.34,2.31-2.9,2.91-4.69c0.6-1.79,0.91-3.72,0.91-5.79c0-4.14-1.35-7.38-4.04-9.7c-2.7-2.33-6.87-3.5-12.52-3.5h-8.8
					V111.72 M685.53,65.73h-30.67c-0.92,0-1.66,0.74-1.66,1.66v79.28c0,0.92,0.74,1.66,1.66,1.66h21.87c0.92,0,1.66-0.74,1.66-1.66
					v-18.22h3.91c1.71,0,2.59,0.31,3.04,0.57c0.67,0.4,1.3,1.07,1.88,1.99l15.64,27.34c1.91,3.3,5.05,4.97,9.33,4.97h19.8
					c0.6,0,1.15-0.32,1.45-0.85c0.29-0.52,0.28-1.16-0.03-1.68L713.35,128c-0.01-0.02-0.02-0.03-0.03-0.05
					c-1.08-1.63-2.31-3.06-3.66-4.25c-0.5-0.44-1.01-0.85-1.54-1.24c2.03-0.98,3.9-2.13,5.57-3.42c2.48-1.91,4.59-4.11,6.27-6.55
					c1.69-2.44,2.99-5.14,3.85-8.01c0.86-2.86,1.3-5.93,1.3-9.14c0-4.21-0.74-8.16-2.19-11.75c-1.49-3.66-3.88-6.86-7.12-9.52
					c-3.2-2.63-7.36-4.71-12.36-6.17C698.48,66.46,692.46,65.73,685.53,65.73L685.53,65.73z M678.39,85.42h7.14
					c5.22,0,9.07,1.04,11.44,3.09c2.34,2.02,3.47,4.78,3.47,8.45c0,1.87-0.28,3.64-0.82,5.27c-0.53,1.56-1.35,2.88-2.51,4.05
					c-1.15,1.15-2.68,2.08-4.54,2.75c-1.9,0.68-4.27,1.03-7.04,1.03h-7.14V85.42L678.39,85.42z"/>
			</g>
			<g>
				<linearGradient id="SVGID_8_" gradientUnits="userSpaceOnUse" x1="435.7272" y1="161.6702" x2="435.7272" y2="67.3916">
					<stop  offset="0" style="stop-color:#ED1E79"/>
					<stop  offset="1" style="stop-color:#961A4D"/>
				</linearGradient>
				<path fill="url(#SVGID_8_)" d="M467.76,120.19c-2.98-3.36-7.57-5.8-13.79-7.31c2.85-1.04,5.29-2.26,7.31-3.69
					c2.03-1.42,3.69-2.99,4.98-4.69c1.3-1.71,2.24-3.54,2.85-5.5c0.6-1.96,0.91-4,0.91-6.11c0-3.88-0.66-7.4-1.97-10.55
					c-1.32-3.15-3.42-5.82-6.31-8.03c-2.89-2.2-6.62-3.9-11.2-5.11c-4.57-1.21-10.12-1.81-16.63-1.81h-34.68v6.34
					c3.12,1.45,7.63,4.74,10.54,6.66c2.32,1.53,3.49,3.1,4.83,5.52c2.04,3.71,4.98,6.34,8.75,8.08c3.83,1.77,7.7,3.45,11.56,5.17
					c0.27-0.42,0.44-0.64,0.56-0.89c1.01-1.99,2.17-2.5,4.16-1.83c1.51,0.52,2.47,1.64,2.73,3.12c0.44,2.52,1.37,4.75,3.1,6.64
					c0.13,0.14,0.22,0.32,0.3,0.49c2.36,5.38,4.79,10.73,7.02,16.17c0.82,1.99,0.79,4.15-0.38,6.13c-0.64,1.08-1.19,2.21-1.91,3.22
					c-1.08,1.51-1.41,3.19-1.13,4.94c0.51,3.24,1.19,6.43,2.8,9.36c0.49,0.9,0.72,1.94,1.11,3.04c-1.35,1.4-2.57,2.75-3.88,3.99
					c-0.38,0.36-1.06,0.65-1.57,0.6c-1.3-0.12-2.57-0.44-3.86-0.68c-1.89,2.53-2.39,2.66-5.32,2c-1.49-0.34-3.03-0.53-4.56-0.6
					c-3.22-0.15-6.03-1.2-8.3-3.51c-1.42-1.44-2.84-2.89-4.12-4.45c-0.85-1.03-1.76-1.63-3.12-1.79c-3.3-0.39-6.35-1.52-9.19-3.25
					c-0.3-0.18-4.66-3.16-5.36-3.46c-0.03,1.47,0.61,5.58,0.71,6.78c0.51,6.53,1.17,10.6,3.06,16.49h29.15
					c5.65,0,10.68-0.72,15.08-2.17c4.4-1.44,8.1-3.45,11.1-6.01c3-2.57,5.27-5.58,6.82-9.03c1.55-3.45,2.33-7.18,2.33-11.19
					C472.22,127.92,470.73,123.56,467.76,120.19z"/>
				<path fill="#ED1E79" d="M433.92,67.39c6.51,0,12.06,0.61,16.63,1.81c4.57,1.21,8.3,2.91,11.2,5.11c2.89,2.2,4.99,4.88,6.31,8.03
					c1.32,3.15,1.97,6.67,1.97,10.55c0,2.11-0.31,4.15-0.91,6.11c-0.61,1.96-1.55,3.8-2.85,5.5c-1.3,1.7-2.95,3.26-4.98,4.69
					c-2.03,1.43-4.47,2.65-7.31,3.69c6.21,1.51,10.81,3.94,13.79,7.31c2.98,3.36,4.46,7.72,4.46,13.07c0,4.01-0.77,7.74-2.33,11.19
					c-1.55,3.45-3.83,6.46-6.82,9.03c-3,2.56-6.7,4.57-11.1,6.01c-4.4,1.45-9.43,2.17-15.08,2.17h-29.15
					c-1.89-5.89-2.55-9.96-3.06-16.49c-0.09-1.2-0.74-5.32-0.71-6.78c0.7,0.3,5.06,3.28,5.36,3.46c2.84,1.73,5.89,2.87,9.19,3.25
					c1.35,0.16,2.27,0.75,3.12,1.79c1.28,1.56,2.71,3.01,4.12,4.45c2.27,2.31,5.08,3.36,8.3,3.51c1.53,0.07,3.07,0.27,4.56,0.6
					c0.92,0.21,1.61,0.34,2.17,0.34c1.22,0,1.86-0.61,3.15-2.34c1.28,0.24,2.56,0.57,3.86,0.68c0.04,0,0.07,0.01,0.11,0.01
					c0.49,0,1.1-0.27,1.46-0.6c1.32-1.24,2.54-2.59,3.88-3.99c-0.39-1.1-0.62-2.14-1.11-3.04c-1.61-2.93-2.28-6.13-2.8-9.36
					c-0.28-1.75,0.05-3.43,1.13-4.94c0.72-1.01,1.28-2.15,1.91-3.22c1.17-1.98,1.2-4.14,0.38-6.13c-2.23-5.43-4.66-10.78-7.02-16.17
					c-0.08-0.18-0.17-0.35-0.3-0.49c-1.73-1.89-2.66-4.12-3.1-6.64c-0.26-1.48-1.21-2.6-2.73-3.12c-0.55-0.19-1.03-0.28-1.47-0.28
					c-1.15,0-1.96,0.67-2.69,2.11c-0.12,0.25-0.29,0.47-0.56,0.89c-3.87-1.72-7.74-3.4-11.56-5.17c-3.77-1.74-6.71-4.38-8.75-8.08
					c-1.34-2.43-2.51-3.99-4.83-5.52c-2.91-1.92-7.42-5.21-10.54-6.66v-6.34H433.92 M433.92,65.73h-34.68
					c-0.92,0-1.66,0.74-1.66,1.66v6.34c0,0.64,0.37,1.23,0.96,1.5c2.25,1.05,5.43,3.22,7.99,4.96c0.84,0.57,1.63,1.11,2.33,1.58
					c2.08,1.37,3.08,2.74,4.29,4.94c2.16,3.91,5.36,6.87,9.51,8.79c2.67,1.23,5.41,2.44,8.05,3.61c1.18,0.52,2.35,1.04,3.53,1.57
					c0.22,0.1,0.45,0.14,0.67,0.14c0.55,0,1.09-0.28,1.4-0.77c0.09-0.14,0.17-0.25,0.23-0.36c0.15-0.22,0.29-0.43,0.41-0.68
					c0.61-1.2,0.99-1.2,1.21-1.2c0.24,0,0.55,0.07,0.93,0.19c0.92,0.31,1.47,0.93,1.63,1.84c0.53,3.02,1.67,5.45,3.48,7.44
					c0.01,0.01,0.02,0.04,0.03,0.07c0.64,1.47,1.3,2.94,1.95,4.41c1.69,3.83,3.45,7.79,5.06,11.72c0.46,1.13,0.79,2.85-0.28,4.65
					c-0.22,0.37-0.42,0.74-0.63,1.11c-0.4,0.71-0.77,1.39-1.2,1.99c-1.3,1.82-1.78,3.9-1.42,6.16c0.52,3.27,1.24,6.73,2.98,9.9
					c0.26,0.47,0.44,1.04,0.64,1.7c0.01,0.04,0.03,0.08,0.04,0.12c-0.14,0.15-0.28,0.3-0.42,0.45c-0.92,0.98-1.8,1.9-2.71,2.76
					c-0.06,0.06-0.23,0.13-0.32,0.15c-0.82-0.08-1.65-0.25-2.54-0.43c-0.38-0.08-0.75-0.16-1.13-0.23c-0.1-0.02-0.21-0.03-0.31-0.03
					c-0.52,0-1.01,0.24-1.33,0.67c-1.25,1.67-1.47,1.67-1.82,1.67c-0.4,0-1.01-0.12-1.8-0.3c-1.55-0.35-3.18-0.57-4.85-0.64
					c-2.98-0.14-5.33-1.13-7.2-3.02c-1.36-1.39-2.77-2.82-4.02-4.34c-1.17-1.43-2.51-2.18-4.21-2.38c-2.93-0.34-5.8-1.36-8.52-3.02
					c-0.08-0.05-0.37-0.25-0.78-0.52c-3.09-2.07-4.3-2.84-4.8-3.06c-0.21-0.09-0.43-0.13-0.65-0.13c-0.31,0-0.63,0.09-0.9,0.26
					c-0.46,0.3-0.75,0.81-0.76,1.36c-0.02,1.01,0.19,2.77,0.48,4.98c0.11,0.82,0.21,1.6,0.23,1.97c0.48,6.22,1.1,10.53,3.13,16.87
					c0.22,0.69,0.86,1.15,1.58,1.15h29.15c5.81,0,11.06-0.76,15.59-2.25c4.58-1.5,8.5-3.63,11.66-6.33
					c3.17-2.72,5.62-5.95,7.26-9.61c1.64-3.64,2.47-7.64,2.47-11.87c0-5.75-1.64-10.51-4.88-14.17c-2.42-2.73-5.84-4.91-10.2-6.49
					c1.25-0.64,2.4-1.32,3.44-2.05c2.15-1.51,3.95-3.2,5.35-5.04c1.41-1.85,2.45-3.88,3.11-6.02c0.65-2.13,0.98-4.35,0.98-6.6
					c0-4.09-0.71-7.85-2.1-11.19c-1.42-3.41-3.72-6.34-6.83-8.7c-3.04-2.32-7-4.13-11.77-5.4
					C446.27,66.36,440.54,65.73,433.92,65.73L433.92,65.73z"/>
			</g>
			<g>
				<path fill="#ED1E79" d="M424.92,115.13c-1.35-0.8-2.26-0.37-3.27,0.39c-1.61,1.21-2.88,0.82-3.74-1.05
					c-0.98-2.13-0.69-4.32,0.03-6.45c0.27-0.79,0.73-1.55,1.22-2.23c1.56-2.17,4.63-2.5,6.54-0.63c2.31,2.26,3.01,5.26,3.43,8.32
					c0.1,0.75-0.57,1.5-1.42,1.6C426.74,115.2,425.75,115.12,424.92,115.13z"/>
			</g>
			<g>
				<path fill="#ED1E79" d="M676.81,167.43c0.55,0.02,1.43,0.24,1.54,0.57c0.16,0.48-0.09,1.26-0.43,1.72
					c-3.34,4.57-6.72,9.12-10.13,13.64c-1.21,1.6-2.8,1.57-3.99-0.03c-3.4-4.53-6.79-9.07-10.14-13.63
					c-0.32-0.43-0.64-1.27-0.44-1.58c0.27-0.42,1.04-0.67,1.61-0.7L676.81,167.43z"/>
			</g>
			<g>
				<path fill="#ED1E79" d="M654.45,154.43h22.77c0.55,0,1,0.45,1,1v5.64c0,0.55-0.45,1-1,1h-22.77c-0.55,0-1-0.45-1-1v-5.64
					C653.45,154.88,653.9,154.43,654.45,154.43z"/>
				<path fill="#ED1E79" d="M677.47,162.95h-23.28c-0.89,0-1.62-0.73-1.62-1.62v-6.16c0-0.89,0.73-1.62,1.62-1.62h23.28
					c0.89,0,1.62,0.73,1.62,1.62v6.16C679.1,162.22,678.37,162.95,677.47,162.95z M654.33,161.19h23v-5.88h-23V161.19z
					 M677.47,155.31L677.47,155.31L677.47,155.31z"/>
			</g>
		</g>
	</g>
</g>
</svg>
