<svg xmlns="http://www.w3.org/2000/svg" viewBox="0 0 202 100"><defs/><linearGradient id="a" x1="100.995" x2="100.995" y1="2" y2="79.72" gradientTransform="matrix(1 0 0 -1 0 102)" gradientUnits="userSpaceOnUse"><stop offset="0" stop-color="gray" stop-opacity="0"/><stop offset="1" stop-color="gray"/></linearGradient><path fill="url(#a)" d="M0 79.4v18.38C0 99 1 100 2.23 100h197.53c1.23 0 2.23-1 2.23-2.22v-75.5l-35.83 31.93-41.96-6.26-35.35 15.33-41.17-6.73-32.06 20.66H0v2.19z" opacity=".3"/><path fill="gray" d="M15.7 77.49H0v-.56h15.54l32.08-20.67.1.02L88.81 63l35.36-15.34.08.02 41.83 6.24L202 21.9v.75L166.26 54.5l-.13-.01-41.88-6.25-35.36 15.33-.08-.01-41.07-6.71L15.7 77.49z"/></svg>