<svg xmlns="http://www.w3.org/2000/svg" width="202" height="100"><defs/><linearGradient id="a" gradientUnits="userSpaceOnUse" x1="101" y1="100" x2="101" y2="22.278"><stop offset="0" stop-color="#03ea9d" stop-opacity="0"/><stop offset="1" stop-color="#03ea9d"/></linearGradient><path opacity=".3" fill="url(#a)" d="M0 79.4v18.38C0 99 1 100 2.23 100h197.53c1.23 0 2.23-1 2.23-2.22v-75.5l-35.83 31.93-41.96-6.26-35.35 15.33-41.17-6.73-32.06 20.66H0v2.19z"/><path fill="#03EA9D" d="M15.7 77.49H0v-.56h15.54l32.08-20.67.1.02L88.81 63l35.36-15.34.08.02 41.83 6.24L202 21.9v.75L166.26 54.5l-.13-.01-41.88-6.25-35.36 15.33-.08-.01-41.07-6.71z"/></svg>