<svg xmlns="http://www.w3.org/2000/svg" xmlns:xlink="http://www.w3.org/1999/xlink">
  <symbol id="LEV" viewBox="0 0 200 200">
    <title>LogoAloneCircleColor.2</title>
      <g>
      <polygon fill="#FD8900" points="87.5,55.9 28.2,158.6 146.7,158.6 "/>
      <polygon fill="#FD8900" points="112.5,144.1 171.8,41.4 53.3,41.4 "/>
      <polygon fill="#FFCD05" points="112.5,144.1 125.5,121.7 87.5,55.9 74.5,78.3 "/>
      <path fill="#FD8900" d="M100,8.5c50.5,0,91.5,41,91.5,91.5s-41,91.5-91.5,91.5S8.5,150.5,8.5,100S49.5,8.5,100,8.5 M100,0
        C44.8,0,0,44.8,0,100s44.8,100,100,100s100-44.8,100-100S155.2,0,100,0L100,0z"/>
      </g>
  </symbol>
  <symbol id="LEVERJ" viewBox="0 0 750 192">
    <text fill="#ff7f00" stroke="#000000" transform="matrix(4.23,0,0,4.49,-622.5,-109.63) " stroke-opacity="0"
            xml:space="preserve" text-anchor="middle" font-family="Sans-serif" font-size="24" id="svg_8" y="52.90625"
            x="236" stroke-linecap="null" stroke-linejoin="null" stroke-dasharray="null" stroke-width="0">LEVERJ</text>
  </symbol>
  <symbol id="DEFAULT" viewBox="0 0 256 417">
    <path d="M 127.961 10 A 202 202 0 1 0 127.961 414 A 202 202 0 1 0 127.961 10 Z " fill="#fff" stroke="black" stroke-width="15" />
    <path fill="#343434" d="M127.961 0l-2.795 9.5v275.668l2.795 2.79 127.962-75.638z"/>
    <path fill="#8C8C8C" d="M127.962 0L0 212.32l127.962 75.639V154.158z"/>
    <path fill="#3C3C3B" d="M127.961 312.187l-1.575 1.92v98.199l1.575 4.6L256 236.587z"/>
    <path fill="#8C8C8C" d="M127.962 416.905v-104.72L0 236.585z"/>
    <path fill="#141414" d="M127.961 287.958l127.96-75.637-127.96-58.162z"/>
    <path fill="#393939" d="M0 212.32l127.96 75.638v-133.8z"/>
  </symbol>
  <symbol id="ETH" viewBox="0 0 256 417">
    <path d="M 127.961 10 A 202 202 0 1 0 127.961 414 A 202 202 0 1 0 127.961 10 Z " fill="#fff" stroke="black" stroke-width="15" />
    <path fill="#343434" d="M127.961 0l-2.795 9.5v275.668l2.795 2.79 127.962-75.638z"/>
    <path fill="#8C8C8C" d="M127.962 0L0 212.32l127.962 75.639V154.158z"/>
    <path fill="#3C3C3B" d="M127.961 312.187l-1.575 1.92v98.199l1.575 4.6L256 236.587z"/>
    <path fill="#8C8C8C" d="M127.962 416.905v-104.72L0 236.585z"/>
    <path fill="#141414" d="M127.961 287.958l127.96-75.637-127.96-58.162z"/>
    <path fill="#393939" d="M0 212.32l127.96 75.638v-133.8z"/>
  </symbol>
  <symbol id="USDC" viewBox="0 0 2000 2000">
    <path d="M1000 2000c554.17 0 1000-445.83 1000-1000S1554.17 0 1000 0 0 445.83 0 1000s445.83 1000 1000 1000z" fill="#2775ca"/>
    <path d="M1275 1158.33c0-145.83-87.5-195.83-262.5-216.66-125-16.67-150-50-150-108.34s41.67-95.83 125-95.83c75 0 116.67 25 137.5 87.5 4.17 12.5 16.67 20.83 29.17 20.83h66.66c16.67 0 29.17-12.5 29.17-29.16v-4.17c-16.67-91.67-91.67-162.5-187.5-170.83v-100c0-16.67-12.5-29.17-33.33-33.34h-62.5c-16.67 0-29.17 12.5-33.34 33.34v95.83c-125 16.67-204.16 100-204.16 204.17 0 137.5 83.33 191.66 258.33 212.5 116.67 20.83 154.17 45.83 154.17 112.5s-58.34 112.5-137.5 112.5c-108.34 0-145.84-45.84-158.34-108.34-4.16-16.66-16.66-25-29.16-25h-70.84c-16.66 0-29.16 12.5-29.16 29.17v4.17c16.66 104.16 83.33 179.16 220.83 200v100c0 16.66 12.5 29.16 33.33 33.33h62.5c16.67 0 29.17-12.5 33.34-33.33v-100c125-20.84 208.33-108.34 208.33-220.84z" fill="#fff"/>
    <path d="M787.5 1595.83c-325-116.66-491.67-479.16-370.83-800 62.5-175 200-308.33 370.83-370.83 16.67-8.33 25-20.83 25-41.67V325c0-16.67-8.33-29.17-25-33.33-4.17 0-12.5 0-16.67 4.16-395.83 125-612.5 545.84-487.5 941.67 75 233.33 254.17 412.5 487.5 487.5 16.67 8.33 33.34 0 37.5-16.67 4.17-4.16 4.17-8.33 4.17-16.66v-58.34c0-12.5-12.5-29.16-25-37.5zM1229.17 295.83c-16.67-8.33-33.34 0-37.5 16.67-4.17 4.17-4.17 8.33-4.17 16.67v58.33c0 16.67 12.5 33.33 25 41.67 325 116.66 491.67 479.16 370.83 800-62.5 175-200 308.33-370.83 370.83-16.67 8.33-25 20.83-25 41.67V1700c0 16.67 8.33 29.17 25 33.33 4.17 0 12.5 0 16.67-4.16 395.83-125 612.5-545.84 487.5-941.67-75-237.5-258.34-416.67-487.5-491.67z" fill="#fff"/>  
  </symbol>
  <symbol id="DAI" viewBox="0 0 444.44 444.44">
    <g id="Layer_x0020_1">
      <metadata id="CorelCorpID_0Corel-Layer"/>
      <path fill="#F5AC37" fill-rule="nonzero" d="M222.22 0c122.74,0 222.22,99.5 222.22,222.22 0,122.74 -99.48,222.22 -222.22,222.22 -122.72,0 -222.22,-99.49 -222.22,-222.22 0,-122.72 99.5,-222.22 222.22,-222.22z"/>
      <path fill="#FEFEFD" fill-rule="nonzero" d="M230.41 237.91l84.44 0c1.8,0 2.65,0 2.78,-2.36 0.69,-8.59 0.69,-17.23 0,-25.83 0,-1.67 -0.83,-2.36 -2.64,-2.36l-168.05 0c-2.08,0 -2.64,0.69 -2.64,2.64l0 24.72c0,3.19 0,3.19 3.33,3.19l82.78 0zm77.79 -59.44c0.24,-0.63 0.24,-1.32 0,-1.94 -1.41,-3.07 -3.08,-6 -5.02,-8.75 -2.92,-4.7 -6.36,-9.03 -10.28,-12.92 -1.85,-2.35 -3.99,-4.46 -6.39,-6.25 -12.02,-10.23 -26.31,-17.47 -41.67,-21.11 -7.75,-1.74 -15.67,-2.57 -23.61,-2.5l-74.58 0c-2.08,0 -2.36,0.83 -2.36,2.64l0 49.3c0,2.08 0,2.64 2.64,2.64l160.27 0c0,0 1.39,-0.28 1.67,-1.11l-0.68 0zm0 88.33c-2.36,-0.26 -4.74,-0.26 -7.1,0l-154.02 0c-2.08,0 -2.78,0 -2.78,2.78l0 48.2c0,2.22 0,2.78 2.78,2.78l71.11 0c3.4,0.26 6.8,0.02 10.13,-0.69 10.32,-0.74 20.47,-2.98 30.15,-6.67 3.52,-1.22 6.92,-2.81 10.13,-4.72l0.97 0c16.67,-8.67 30.21,-22.29 38.75,-39.01 0,0 0.97,-2.1 -0.12,-2.65zm-191.81 78.75l0 -0.83 0 -32.36 0 -10.97 0 -32.64c0,-1.81 0,-2.08 -2.22,-2.08l-30.14 0c-1.67,0 -2.36,0 -2.36,-2.22l0 -26.39 32.22 0c1.8,0 2.5,0 2.5,-2.36l0 -26.11c0,-1.67 0,-2.08 -2.22,-2.08l-30.14 0c-1.67,0 -2.36,0 -2.36,-2.22l0 -24.44c0,-1.53 0,-1.94 2.22,-1.94l29.86 0c2.08,0 2.64,0 2.64,-2.64l0 -74.86c0,-2.22 0,-2.78 2.78,-2.78l104.16 0c7.56,0.3 15.07,1.13 22.5,2.5 15.31,2.83 30.02,8.3 43.47,16.11 8.92,5.25 17.13,11.59 24.44,18.89 5.5,5.71 10.46,11.89 14.86,18.47 4.37,6.67 8,13.8 10.85,21.25 0.35,1.94 2.21,3.25 4.15,2.92l24.86 0c3.19,0 3.19,0 3.33,3.06l0 22.78c0,2.22 -0.83,2.78 -3.06,2.78l-19.17 0c-1.94,0 -2.5,0 -2.36,2.5 0.76,8.46 0.76,16.95 0,25.41 0,2.36 0,2.64 2.65,2.64l21.93 0c0.97,1.25 0,2.5 0,3.76 0.14,1.61 0.14,3.24 0,4.85l0 16.81c0,2.36 -0.69,3.06 -2.78,3.06l-26.25 0c-1.83,-0.35 -3.61,0.82 -4.03,2.64 -6.25,16.25 -16.25,30.82 -29.17,42.5 -4.72,4.25 -9.68,8.25 -14.86,11.94 -5.56,3.2 -10.97,6.53 -16.67,9.17 -10.49,4.72 -21.49,8.2 -32.78,10.41 -10.72,1.92 -21.59,2.79 -32.5,2.64l-96.39 0 0 -0.14z"/>
    </g>
  </symbol>
  <symbol  id="BAT" viewBox="0 0 2000 1719">
    <path fill="#662d91" d="M2000 1716.64 1004.79 1146.78 0 1719 2000 1716.64z"/>
    <path fill="#9e1f63" d="M1005.11 0 1004.79 1146.78 2000 1716.64 1005.11 0z"/>
    <path fill="#ff5000" d="M0 1719 1004.79 1146.78 1005.11 0 0 1719z"/>
    <path fill="#fff" stroke="#ff5000" stroke-miterlimit="10" stroke-width="25" d="m1002.75 695.67l-410.85 686.25h823.54l-412.69-686.25z"/>
  </symbol>
  <symbol id="REP" viewBox="0 0 837.91 987">
    <title>augur</title>
    <g id="Layer_2" data-name="Layer 2">
      <g id="Layer_1-2" data-name="Layer 1">
        <path fill="#5f2652" d="M599.09,507.53a188.92,188.92,0,0,0-54-80l-9.35-7.8-.52-.51a103.9,103.9,0,0,0-9.35-6.76l-.52-.52c-3.11-2.08-6.23-4.15-9.87-6.23-.52,0-.52-.52-1-.52a89.34,89.34,0,0,0-9.87-5.2c-.52,0-.52-.51-1-.51-3.12-1.56-6.76-3.12-10.39-4.68-.52,0-.52-.52-1-.52-3.12-1-6.24-2.6-9.35-3.64a149.13,149.13,0,0,0-26-7.27c-6.75,13-16.1,24.42-26.49,34.29A147.12,147.12,0,0,1,476,428.57,172.84,172.84,0,0,1,499.87,441a1.82,1.82,0,0,1,1,.52c2.08,1,3.63,2.6,5.71,4.16a9.13,9.13,0,0,1,2.6,2.08,35.73,35.73,0,0,1,5.19,4.15c1,1,2.08,1.56,3.12,2.6,1.56,1.56,3.12,2.6,4.68,4.16l3.11,3.11,4.16,4.16,3.12,3.11a29.07,29.07,0,0,0,3.63,4.16c1,1,2.08,2.6,3.12,3.64l3.12,4.67c1,1.56,2.07,2.6,2.59,4.16l3.12,4.67c1,1.56,1.56,3.12,2.6,4.16,1,1.56,1.56,3.12,2.59,4.67s1.56,3.12,2.6,4.68c.52,1.56,1.56,3.12,2.08,4.67,1,2.08,1.56,4.16,2.6,5.72a136.37,136.37,0,0,1,8.83,33.25l4.67,18.18c2.08,7.79,20.78,74.28,64.42,96.62,49.87,26,115.84,58.18,141.81,70.65L438.05,937.65V797.39c0-22.34,44.16-48.31,64.42-57.14l1-.52c4.15-2.08,8.31-4.16,12.46-6.75l1.56-1a171.12,171.12,0,0,0,24.94-18.18c.52-.52,1.55-1,2.07-2.08,1-.52,1.56-1.56,2.6-2.08,2.6-2.08,4.68-4.67,7.27-6.75l1-1a56.08,56.08,0,0,0,7.28-8.31c.51-1,1.55-1.56,2.07-2.6,2.08-2.08,3.64-4.68,5.72-7.27.52-.52,1-1.56,1.56-2.08l6.23-9.35c0-.52.52-.52.52-1,2.6-4.16,5.19-8.83,7.79-13-10.39-12.46-18.18-26-24.41-38.44a146.15,146.15,0,0,1-9.87,22.34c-1.56,3.12-3.64,6.23-5.2,9.35-.52.52-.52,1-1,1a88,88,0,0,1-5.19,7.27c-.52.52-1,1.56-1.56,2.08a35.43,35.43,0,0,1-5.72,6.75c-.51.52-.51,1-1,1a144.64,144.64,0,0,1-44.68,34.29l-3.12,1.56c-8.83,3.63-85.19,38.44-85.19,90.9V936.61L56.76,732.46c22.34-13.51,86.75-52,139.74-68.57,20.78-6.76,64.93,21.3,89.87,41.56l1.55,1.55a85.52,85.52,0,0,0,10.39,8.84l1,1c7.79,6.24,16.11,12.47,25.46,17.15l6.23,3.11a1.82,1.82,0,0,1,1,.52A181.26,181.26,0,0,0,349.74,746c1,.52,1.56.52,2.6,1,.52,0,1,.52,2.08.52a255,255,0,0,0,26.49,7.8c6.75-13,16.62-24.42,27-34.29a145.24,145.24,0,0,1-42.59-9.35c-.52-.52-1.56-.52-2.08-1a18.47,18.47,0,0,1-4.68-2.08c-.52-.52-1.56-.52-2.08-1a31.37,31.37,0,0,1-4.15-2.07,148,148,0,0,1-28.57-18.19L310.26,674.8a252.27,252.27,0,0,0-40.52-29.09C236,626.49,207.41,620.25,185.59,627,140.39,641.55,89,669.08,57.8,687.26l342.33-615v269.6c0,9.35-14,34.29-61.3,55.59L335.72,399c-4.68,2.07-8.84,4.67-13.51,7.27l-1,.52a207.74,207.74,0,0,0-25.45,18.18,115.56,115.56,0,0,0-14,13.51l-.52.52A109.36,109.36,0,0,0,268.7,453.5l-.52.52c-2.07,2.6-3.63,5.19-5.71,7.79,0,.52-.52.52-.52,1-1.56,2.6-3.12,4.68-4.68,7.27,0,.52-.51.52-.51,1L252.08,479c-.52.52-.52,1-1,2.08-1.56,2.6-2.6,5.2-3.64,7.28a1.82,1.82,0,0,1-.51,1c-1,2.6-2.08,4.68-3.12,7.28-.52,1-.52,1.56-1,2.59l-3.12,7.8c-.52,1-.52,1.55-1,2.59a25.8,25.8,0,0,1-2.07,5.72c-.52,1-.52,2.08-1,3.11-.52,2.6-1.56,5.2-2.08,7.28-.52,1-.52,2.59-1,3.63-.52,1.56-.52,3.64-1,5.2s-.52,3.12-1,4.67c-.52,2.08-.52,4.16-1,6.24,0,1.56-.52,2.59-.52,4.15,0,2.08-.52,3.64-.52,5.72a21.26,21.26,0,0,1-.52,5.71v7.79a165.9,165.9,0,0,0,2.08,28.06c13.51,3.11,27.53,8.83,42.6,16.1a161.77,161.77,0,0,1-6.75-42.08v-2.6a69.62,69.62,0,0,1,.52-10.39v-2.59a52,52,0,0,1,1-8.83v-1c.52-3.12,1-6.24,1.56-9.87,0-1,.52-1.56.52-2.6.52-2.6,1.56-5.19,2.08-7.79,0-.52.52-1,.52-1.56l3.12-9.35c.52-.52.52-1.56,1-2.08,1-2.6,2.07-5.19,3.11-7.27.52-.52.52-1,1-2.08,1.56-3.12,2.6-5.71,4.68-8.31.52-.52.52-1,1-1.56,1.55-2.6,2.59-4.67,4.15-7.27.52-.52.52-1,1-1.56a74.57,74.57,0,0,1,5.71-7.79.51.51,0,0,1,.52-.52c2.08-2.6,3.64-4.68,5.72-7.27.52-.52.52-1,1-1.56a158.73,158.73,0,0,1,31.69-27l16.1-7.79c8.83-3.63,84.67-39.48,84.67-91.94v-268L781.94,692.46c-30.65-15.07-85.19-42.08-127.27-63.9-24.41-12.46-40.52-56.62-45.19-72.72l-4.68-18.7c0-9.87-2.59-19.74-5.71-29.61ZM832.85,702.85,452.08,19.74a37.87,37.87,0,0,0-66.5,0L4.81,702.85c-9.87,17.66-4.16,40.52,13.51,50.91l381.29,228a40.14,40.14,0,0,0,39.48,0L819.86,754.28c17.15-10.91,23.38-33.77,13-51.43Z"/>
      </g>
    </g>
  </symbol>
  <symbol id="WBTC" viewBox="0 0 109.26 109.26">
    <title>wrapped-bitcoin-wbtc</title>
    <g id="Layer_2" data-name="Layer 2">
      <g id="Layer_1-2" data-name="Layer 1">
        <g id="Page-1">
          <g id="wbtc_colour" data-name="wbtc colour">
            <path id="Shape" class="cls-1" d="M89.09,22.93l-3,3a42.47,42.47,0,0,1,0,57.32l3,3a46.76,46.76,0,0,0,0-63.39Z"/>
            <path id="Shape-2" data-name="Shape" fill="#5a5564" d="M26,23.19a42.47,42.47,0,0,1,57.32,0l3-3a46.76,46.76,0,0,0-63.39,0Z"/>
            <path id="Shape-3" data-name="Shape" fill="#5a5564" d="M23.19,83.28a42.47,42.47,0,0,1,0-57.29l-3-3a46.76,46.76,0,0,0,0,63.39Z"/>
            <path id="Shape-4" data-name="Shape" fill="#5a5564" d="M83.28,86.05a42.47,42.47,0,0,1-57.32,0l-3,3a46.76,46.76,0,0,0,63.39,0Z"/>
            <path id="Shape-5" data-name="Shape" fill="#f09242" d="M73.57,44.62c-.6-6.26-6-8.36-12.83-9V27H55.46v8.46c-1.39,0-2.81,0-4.22,0V27H46v8.68H35.29v5.65s3.9-.07,3.84,0a2.73,2.73,0,0,1,3,2.32V67.41a1.85,1.85,0,0,1-.64,1.29,1.83,1.83,0,0,1-1.36.46c.07.06-3.84,0-3.84,0l-1,6.31H45.9v8.82h5.28V75.6H55.4v8.65h5.29V75.53c8.92-.54,15.14-2.74,15.92-11.09.63-6.72-2.53-9.72-7.58-10.93C72.1,52,74,49.2,73.57,44.62ZM66.17,63.4c0,6.56-11.24,5.81-14.82,5.81V57.57C54.93,57.58,66.17,56.55,66.17,63.4ZM63.72,47c0,6-9.38,5.27-12.36,5.27V41.69C54.34,41.69,63.72,40.75,63.72,47Z"/>
            <path id="Shape-6" data-name="Shape" fill="#282138" d="M54.62,109.26a54.63,54.63,0,1,1,54.64-54.64A54.63,54.63,0,0,1,54.62,109.26Zm0-105A50.34,50.34,0,1,0,105,54.62,50.34,50.34,0,0,0,54.62,4.26Z"/>
          </g>
        </g>
      </g>
    </g>
  </symbol>
  <symbol id="SLP" viewBox="0 0 1094 1094" >
    <defs>
      <linearGradient id="test_13" x1="547" y1="1094" x2="547" gradientUnits="userSpaceOnUse">
        <stop offset="0" stop-color="#005f90"/>
        <stop offset="1" stop-color="#3a3479"/>
      </linearGradient>
    </defs>
    <g id="layer_2" data-name="layer 2">
      <g id="layer_1-2" data-name="layer 1">
        <rect fill="#005f90" width="1094" height="1094"/>
        <path fill="#fff" d="M715.67,308.65c11,9.22,22.08,17.84,32.42,27.25,43.21,39.33,70.6,88.47,87.89,143.67,11.45,36.59,17.78,74.12,20,112.41q7.37,127.72-38.21,247.2A262.89,262.89,0,0,1,782.07,904c-15.45,20.47-36,30.57-61.46,30.63-9.15,0-18.52-.29-27.42-2.18-19.85-4.21-30.91-16.44-33.76-36.62-1.2-8.5-.87-17.21-1.42-25.82s-.88-17.25-2.14-25.76c-2.08-13.94-10.54-23-23.36-28.38s-26.47-6.45-40.08-6.6c-30.17-.33-60.35-.59-90.5.14a158.26,158.26,0,0,0-36.26,5.25c-18,4.74-27.23,17.81-28.47,36.22-.75,11.1-.51,22.26-1.22,33.37A92.54,92.54,0,0,1,433.1,903c-5.86,21.18-21.8,29.88-42.08,31.37A145.81,145.81,0,0,1,357.75,933c-18.37-2.9-33.06-12.77-44.47-27.5-23.63-30.53-38.18-65.47-49.41-102C243.72,738,234.59,671,237.54,602.48c3-70.29,18.22-137.51,54-199,20.27-34.86,47-64,79.23-88.08,4.64-3.45,4.08-6,1.3-9.79-6.77-9.18-22.9-11.86-34.06-5.36-5.86,3.41-11.61,5.85-18.44,2.73-8.87-4-10.26-11.8-2.63-17.94,2.83-2.28,6.71-3.53,10.32-4.48,4.43-1.17,9.12-1.29,13.58-2.35,1.76-.42,3.2-2.15,4.79-3.29-1.46-1.39-2.81-3.81-4.41-4a142,142,0,0,0-20.4-.94c-4.93.18-9.8,1.76-14.73,2.47-6.25.9-12.35.32-17.59-3.58-8.85-6.58-7.62-16.4,2.49-20.74,8.42-3.62,17-1.85,25.53-.62,3,.44,6,1.39,9.06,1.59,1.71.12,3.49-.79,5.24-1.24-.66-1.65-.94-3.65-2.05-4.89-5.2-5.77-12-6.47-19.43-6.6-7.93-.15-16.19-.6-23.62-3-4.72-1.53-9.13-6.28-12-10.69-3.52-5.49-1-11.12,5.51-12.29,5.62-1,11.7-.33,17.43.52,4.42.66,8.63,2.75,13.9,3.16a47.77,47.77,0,0,0-3.81-5.72c-5.24-5.88-10.83-11.46-15.91-17.46a71,71,0,0,1-8.48-12.27c-3.93-7.38-2.74-12.71,2.93-16.78s11.36-3.46,16.82,2.68a88.45,88.45,0,0,1,9.87,14.1c3.58,6.12,6.52,12.61,9.89,18.86a62.32,62.32,0,0,0,4,5.8l1.6-.46c0-3.94-.63-8,.14-11.8,1.27-6.26,2.56-12.8,5.49-18.36,3.1-5.87,9.31-5.85,14.05-1,6.64,6.77,7,15.29,5.19,23.72-1.44,6.69-4.51,13-6.57,19.58-2.44,7.74-.39,15.06,6,19.78,1.09-3.71,2.19-7,3-10.31,1.45-6,2.56-12,4.17-17.89a27,27,0,0,1,3.48-7.22c4-6.31,9.84-9,14.87-7.24,5.46,1.93,9.79,9.4,8.26,16.16-1.2,5.33-3.58,10.45-5.89,15.45-3.05,6.6-6.88,12.85-9.7,19.53-2,4.65-1.75,9.64,2.3,16.12,3.57-6,6.69-10.61,9.17-15.55,2.88-5.75,6.46-10.42,13-12.11,6.17-1.6,10,.75,11.61,6.89,2.2,8.51-1.61,14.33-7.93,19.42-9,7.21-11.52,16.83-9.44,27.85a17.15,17.15,0,0,0,2,5.32c3.73,6.56,5.13,6.9,11.52,3.21,43.37-25.09,90.07-39,140.18-39.85,52.19-.89,100.94,12.59,146.41,38.12,1.82,1,3.66,2,5.4,3,9.62-8.1,9.12-26.06-.8-35.65-1.93-1.87-4.1-3.48-6-5.36-4.85-4.78-6.07-10.48-4-16.93,1.68-5.23,5.3-7.42,10.59-6.22,6.76,1.53,10.7,6.15,13.68,12.13,2.48,5,5.56,9.67,8.72,15.08,4.93-5.08,4.73-9.77,3.22-14-2-5.56-4.9-10.77-7.4-16.14-2.82-6.06-6.29-11.93-8.16-18.27-1-3.47-.21-8.11,1.28-11.58,3.44-8,12-9.84,17.68-3.31,4.09,4.73,6.59,11.05,8.93,17,1.65,4.21,1.72,9,2.73,13.5.65,2.86,1.72,5.62,2.67,8.63a15.45,15.45,0,0,0,6.68-17.48c-1.21-4.42-3.67-8.53-4.61-13-1.42-6.67-3-13.57-2.6-20.27.24-4.31,3.12-9,6.06-12.49,3.81-4.51,9.52-4.14,12.78.78a38.36,38.36,0,0,1,5.42,13.59c1.08,5.55.77,11.36,2.3,17.61a66.4,66.4,0,0,0,4.25-6.13c4-7.42,7.62-15.09,11.92-22.34A57.54,57.54,0,0,1,788.82,163c4.85-4.71,10-4.81,15.14-1.24s6.77,8.53,3.9,14.68a66.7,66.7,0,0,1-8.63,13.5c-4.46,5.52-9.59,10.49-14.34,15.78a29.23,29.23,0,0,0-5.85,9.14c2.38-.64,4.74-1.38,7.15-1.89,6.51-1.35,13-3.49,19.56-3.53,3.5,0,9,2.93,10,5.81,1.16,3.29-.57,8.87-3,11.89-6.5,8.12-16.21,9.56-26,9.78-5,.11-10-.37-14.91.06-6.38.55-10.82,4.36-15,11.18,3.43.3,6,.92,8.45.66,7.24-.75,14.42-2.28,21.66-2.65a27.78,27.78,0,0,1,11.72,2.24c9.66,4,10.65,14.17,2.19,20.42-5.44,4-11.7,4.51-18.16,3.55-7.39-1.11-14.75-2.9-22.17-3.22-4.76-.21-9.65,1.54-14.37,2.81-1,.28-2.13,2.24-2.21,3.49-.05.73,1.74,2.06,2.87,2.31,4.68,1,9.43,1.67,14.13,2.56a34,34,0,0,1,7.2,1.79c6.22,2.72,10.28,9.29,9,14s-9.56,9.45-15.71,8.11c-3.83-.83-7.5-2.77-11-4.64C738.15,293,721.91,297.19,715.67,308.65ZM415.14,624.91c.84,8.16.72,16.57,2.73,24.44,3.12,12.25,13.79,14.65,22.74,5.59,3.34-3.38,5.74-7.66,8.78-11.36A112.89,112.89,0,0,1,459,632.91c3.54-3.36,7.12-3.1,10.26,1.05,3,4,6.51,7.6,9.4,11.66,6.33,8.88,15.29,11.72,25.58,11.73h85.85c10.31,0,19.25-2.91,25.56-11.78,2.78-3.9,6-7.48,9.08-11.18,3.94-4.76,6.42-5.26,11-1.06,3.65,3.32,6.64,7.39,9.8,11.23s5.52,8,9,11.2c8.35,7.83,18.28,5.51,21.53-5.38,1.83-6.12,2.28-12.85,2.27-19.3-.11-42.94-9.27-84.15-25.24-123.83-4.48-11.15-10.6-21.68-16.44-32.23-2.93-5.29-5.4-5-8.73.18-1.45,2.26-2.52,4.81-4.2,6.87-3.84,4.72-7.64,9.57-12.07,13.7-3.44,3.21-6.81,2.44-9.09-2.27-2.91-6.05-6.06-12-9.49-17.76-3.71-6.24-9-10.52-16.67-10.71-14.55-.37-29.12-1.08-43.67-.95-25.26.23-27.09,1.33-39.52,26.38-4.39,8.85-7.69,9.34-14.78,2.15a36.81,36.81,0,0,1-4.34-5.37c-2.78-4.14-5.33-8.43-8.11-12.58-3.05-4.54-5.15-4.66-8.12-.08a141.9,141.9,0,0,0-9.21,15.93A352.05,352.05,0,0,0,415.14,624.91Z"/>
      </g>
    </g>
  </symbol>
  <symbol id="BTC" viewBox="0 0 4091.27 4091.73">
    <g id="Layer_x0020_1">
      <metadata id="CorelCorpID_0Corel-Layer"/>
        <g id="_1421344023328">
          <path fill="#F7931A" fill-rule="nonzero" d="M4030.06 2540.77c-273.24,1096.01 -1383.32,1763.02 -2479.46,1489.71 -1095.68,-273.24 -1762.69,-1383.39 -1489.33,-2479.31 273.12,-1096.13 1383.2,-1763.19 2479,-1489.95 1096.06,273.24 1763.03,1383.51 1489.76,2479.57l0.02 -0.02z"/>
          <path fill="white" fill-rule="nonzero" d="M2947.77 1754.38c40.72,-272.26 -166.56,-418.61 -450,-516.24l91.95 -368.8 -224.5 -55.94 -89.51 359.09c-59.02,-14.72 -119.63,-28.59 -179.87,-42.34l90.16 -361.46 -224.36 -55.94 -92 368.68c-48.84,-11.12 -96.81,-22.11 -143.35,-33.69l0.26 -1.16 -309.59 -77.31 -59.72 239.78c0,0 166.56,38.18 163.05,40.53 90.91,22.69 107.35,82.87 104.62,130.57l-104.74 420.15c6.26,1.59 14.38,3.89 23.34,7.49 -7.49,-1.86 -15.46,-3.89 -23.73,-5.87l-146.81 588.57c-11.11,27.62 -39.31,69.07 -102.87,53.33 2.25,3.26 -163.17,-40.72 -163.17,-40.72l-111.46 256.98 292.15 72.83c54.35,13.63 107.61,27.89 160.06,41.3l-92.9 373.03 224.24 55.94 92 -369.07c61.26,16.63 120.71,31.97 178.91,46.43l-91.69 367.33 224.51 55.94 92.89 -372.33c382.82,72.45 670.67,43.24 791.83,-303.02 97.63,-278.78 -4.86,-439.58 -206.26,-544.44 146.69,-33.83 257.18,-130.31 286.64,-329.61l-0.07 -0.05zm-512.93 719.26c-69.38,278.78 -538.76,128.08 -690.94,90.29l123.28 -494.2c152.17,37.99 640.17,113.17 567.67,403.91zm69.43 -723.3c-63.29,253.58 -453.96,124.75 -580.69,93.16l111.77 -448.21c126.73,31.59 534.85,90.55 468.94,355.05l-0.02 0z"/>
        </g>
    </g>
  </symbol>
  <symbol id="L2" viewBox="0 0 520 520">
    <title>GluonLogo</title>
<g>
	<path fill="#5091CD" d="M260,520C116.64,520,0,403.36,0,260C0,116.64,116.64,0,260,0s260,116.63,260,260
		C520,403.36,403.37,520,260,520z M260,7.93C121.01,7.93,7.93,121.01,7.93,260c0,138.99,113.08,252.07,252.07,252.07
		S512.07,398.99,512.07,260C512.07,121.01,398.99,7.93,260,7.93z 
    
    M404.21,171.65c-0.63-0.68-2.9-3.17-12.69-3.17c-0.08,0-0.16-0.02-0.24-0.02H284.84
    c-3.65-2.68-12.94-4.58-23.85-4.58c-14.1,0-25.53,3.19-25.53,7.09c0,3.91,11.71,7.09,25.53,7.09c8.02,0,15.16-1.03,19.84-2.63
    h97.9c-11.27,12.89-53.05,22.46-102.92,22.46c-57.39,0-105.94-13.05-105.94-29.43s47.43-29.43,105.94-29.43
    c14.62,0,28.53,0.83,41.2,2.31c3.46,2.78,12.93,4.78,24.11,4.78c14.12,0,25.53-3.16,25.53-7.09s-11.43-7.09-25.53-7.09
    c-4.24,0-8.24,0.29-11.76,0.8c-20.4-3.02-43.65-4.75-68.38-4.75c-80.45,0-145.67,18.17-145.67,40.47s66.52,40.47,145.67,40.47
    c71.95,0,131.69-14.49,143.51-33.54C405.38,174,404.93,172.44,404.21,171.65z
        
    M397.85,200.8c-20.37,15.52-73.42,26.6-136.34,26.6l0,0c-62.92,0-115.96-11.08-136.34-26.6
		c-1.03-0.68-1.65-1.34-2.97-0.81c-0.82,0.33-0.15,1.78-0.15,1.78c3.74,7.7,9.14,17.79,15.64,29.43c0,0,11.41,19.96,17.83,30.96
		c14.44,12.58,38.81,22.07,65.45,24.33c4.77,0.41,8.31,4.6,7.91,9.37c-0.38,4.52-4.17,7.94-8.63,7.94c-0.24,0-0.49-0.01-0.74-0.03
		c-16.66-1.41-32.27-5.22-45.84-10.8c12.25,20.65,24.89,41.69,36.24,60.47c12.69,4.03,27.53,6.23,42.99,5.94
		c4.75-0.07,8.74,3.72,8.83,8.51c0.09,4.79-3.72,8.74-8.51,8.83c-1.07,0.02-2.13,0.03-3.19,0.03c-9.52,0-18.72-0.82-27.42-2.34
		c15.59,25.67,26.5,43.43,26.5,43.43c6.52,11.25,17.19,11.25,23.71,0c0,0,26.35-41.99,55.65-90.25
		c-16.58,5.24-37.05,8.84-60.44,10.39c-0.2,0.01-0.39,0.02-0.58,0.02c-4.53,0-8.34-3.51-8.64-8.09c-0.32-4.78,3.3-8.91,8.08-9.23
		c36.69-2.44,62.55-10.06,76.88-18.41c9.4-15.65,18.68-31.31,27.12-45.84c-14.85,5.1-32.79,9.01-53.09,11.38
		c-1.91,0.22-3.83,0.43-5.77,0.63c-0.29,0.03-0.58,0.04-0.87,0.04c-4.4,0-8.17-3.34-8.62-7.81c-0.48-4.76,3-9.01,7.77-9.49
		c1.84-0.18,3.67-0.38,5.49-0.59c32.66-3.82,55.87-11.35,69.51-19.38c6.5-11.63,11.9-21.73,15.64-29.43c0,0,0.68-1.45-0.15-1.78
		C399.49,199.46,398.87,200.12,397.85,200.8 M282.33,253.24h0.02c4.79,0,8.67,3.88,8.67,8.67s-3.88,8.67-8.67,8.67
		c-4.79,0-8.68-3.88-8.68-8.67S277.54,253.24,282.33,253.24z M244.88,305.68c-4.79,0-8.68-3.88-8.68-8.67
		c0-4.79,3.87-8.67,8.66-8.67h0.02c4.79,0,8.67,3.88,8.67,8.67C253.55,301.8,249.67,305.68,244.88,305.68z M275.88,376.74
		c-4.79,0-8.68-3.88-8.68-8.67c0-4.79,3.87-8.67,8.66-8.67h0.02c4.79,0,8.67,3.88,8.67,8.67
		C284.55,372.86,280.67,376.74,275.88,376.74z"/>
</g>
  </symbol>
  <symbol id="USDT" viewBox="0 0 2000 2000">
    <g>
      <path d="M1000,0c552.26,0,1000,447.74,1000,1000S1552.24,2000,1000,2000,0,1552.38,0,1000,447.68,0,1000,0" fill="#53ae94"/>
      <path d="M1123.42,866.76V718H1463.6V491.34H537.28V718H877.5V866.64C601,879.34,393.1,934.1,393.1,999.7s208,120.36,484.4,133.14v476.5h246V1132.8c276-12.74,483.48-67.46,483.48-133s-207.48-120.26-483.48-133m0,225.64v-0.12c-6.94.44-42.6,2.58-122,2.58-63.48,0-108.14-1.8-123.88-2.62v0.2C633.34,1081.66,451,1039.12,451,988.22S633.36,894.84,877.62,884V1050.1c16,1.1,61.76,3.8,124.92,3.8,75.86,0,114-3.16,121-3.8V884c243.8,10.86,425.72,53.44,425.72,104.16s-182,93.32-425.72,104.18" fill="#fff"/>
    </g>
  </symbol>
  <symbol id="DEFI" viewBox="0 0 512 512">
    <g>
	    <g transform="translate(0.00630876,-0.00301984)">
		    <path fill="#1F2127" d="M498.03,316.42C464.7,450.04,329.29,531.36,195.68,498.03C61.96,464.7-19.37,329.39,13.96,195.68
			  C47.29,62.06,182.6-19.36,316.32,13.97C449.93,47.4,531.36,182.71,498.03,316.42z"/>
	    </g>
	    <path fill="#FFFFFF" d="M112.2,189.82c46,0,73.84,28.54,73.84,73.14s-27.94,73.14-73.84,73.14H56.91V189.82H112.2 M94.53,302.98
		h15.67c24.25,0,37.82-15.47,37.82-40.01c0-24.85-13.57-40.21-37.82-40.21H94.53V302.98 M245.01,226.64
		c32.83,0,51.39,21.95,51.39,53.79v9.28h-69.25c1.2,12.87,7.78,19.76,18.56,19.76c7.58,0,13.57-3.29,15.77-10.68H296
		c-3.89,24.85-22.35,39.81-50.29,39.81c-32.83,0-54.48-22.65-54.48-55.88C191.23,249.59,213.98,226.64,245.01,226.64 M227.95,271.24
		h32.43c-0.4-8.78-5.99-15.47-15.27-15.47C236.23,255.78,230.24,261.27,227.95,271.24 M409.66,189.82v33.13H344.7v29.04h59.77v32.43
		H344.7v51.69h-37.82V189.82H409.66 M459.46,228.93v107.17h-37.42V228.93H459.46"/>
	  <path fill="#FF6600" d="M440.8,179.74c-11.48,0-19.96,8.58-19.96,20.06c0,11.28,8.58,19.86,19.96,19.86
		c11.48,0,19.96-8.48,19.96-19.86C460.85,188.32,452.27,179.74,440.8,179.74L440.8,179.74z"/>
    </g>
  </symbol>
  <symbol id="LINK" viewBox="0 0 37.8 43.6">
    <title>LINK</title>
    <g id="Layer_2" data-name="Layer 2">
      <g id="Layer_1-2" data-name="Layer 1">
        <path fill="#2a5ada" d="M18.9,0l-4,2.3L4,8.6,0,10.9V32.7L4,35l11,6.3,4,2.3,4-2.3L33.8,35l4-2.3V10.9l-4-2.3L22.9,2.3ZM8,28.1V15.5L18.9,9.2l10.9,6.3V28.1L18.9,34.4Z"/>
      </g>
    </g>
  </symbol>
  <symbol id="ADVANTAGE_1" viewBox="0 0 150 150">
    <g>
      <rect fill="none" width="150" height="150"/>
    </g>
    <g>
      <g>
        <path fill="#000000" d="M111.19,108.14h-7.96V89.42c0-0.83-0.67-1.5-1.5-1.5c-0.83,0-1.5,0.67-1.5,1.5v18.72H86.56H53.04v0
          c0,0,0,0,0,0c-0.83,0-1.5,0.67-1.5,1.5v4.81c0,5.04-4.85,9.14-10.81,9.14c-0.36,0-0.72-0.02-1.07-0.05
          c-5.55-0.46-9.74-4.37-9.74-9.09v-74.4h70.32v22.99v2.84v16.6c0,0.83,0.67,1.5,1.5,1.5c0.83,0,1.5-0.67,1.5-1.5v-16.6v-2.84V38.56
          V24.9c0-0.83-0.67-1.5-1.5-1.5H28.41c-0.83,0-1.5,0.67-1.5,1.5v13.65v75.98c0,0.03,0.01,0.06,0.01,0.09
          c0.1,6.22,5.43,11.33,12.49,11.92c0.43,0.04,0.87,0.06,1.32,0.06c0,0,0,0,0,0h58.15h0h0c6.8,0,12.31-5.69,12.31-12.71v0
          L111.19,108.14L111.19,108.14z M34.12,32.65c0-0.83,0.67-1.5,1.5-1.5s1.5,0.67,1.5,1.5c0,0.82-0.67,1.5-1.5,1.5
          S34.12,33.47,34.12,32.65z M46.12,32.65c0-0.83,0.67-1.5,1.5-1.5s1.5,0.67,1.5,1.5c0,0.82-0.67,1.5-1.5,1.5
          S46.12,33.47,46.12,32.65z M58.12,32.65c0-0.83,0.67-1.5,1.5-1.5s1.5,0.67,1.5,1.5c0,0.82-0.67,1.5-1.5,1.5
          S58.12,33.47,58.12,32.65z"/>
        <path fill="#000000" d="M58.26,96.15H42.43c-0.83,0-1.5,0.67-1.5,1.5s0.67,1.5,1.5,1.5h15.83c0.83,0,1.5-0.67,1.5-1.5
          S59.09,96.15,58.26,96.15z"/>
        <path fill="#000000" d="M58.26,89.15H42.43c-0.83,0-1.5,0.67-1.5,1.5s0.67,1.5,1.5,1.5h15.83c0.83,0,1.5-0.67,1.5-1.5
          S59.09,89.15,58.26,89.15z"/>
        <path fill="#000000" d="M58.26,82.15H42.43c-0.83,0-1.5,0.67-1.5,1.5s0.67,1.5,1.5,1.5h15.83c0.83,0,1.5-0.67,1.5-1.5
          S59.09,82.15,58.26,82.15z"/>
        <path fill="#000000" d="M58.26,76.15H42.43c-0.83,0-1.5,0.67-1.5,1.5s0.67,1.5,1.5,1.5h15.83c0.83,0,1.5-0.67,1.5-1.5
          S59.09,76.15,58.26,76.15z"/>
      </g>
      <g>
        <path fill="#F7961B" d="M117.78,86.66l-4.07,4.07l-3.22-3.22l4.07-4.07l-6.25-6.25l-5.52,5.52L86.23,66.15
          c2.89-5.33,2.09-12.12-2.42-16.62c-5.49-5.49-14.38-5.49-19.87,0s-5.49,14.38,0,19.87c4.5,4.5,11.3,5.3,16.62,2.42l31.33,31.33
          l5.66-5.66l5.52-5.52L117.78,86.66z M72.17,57.76c-1.07,1.07-2.79,1.07-3.86,0c-1.07-1.07-1.07-2.79,0-3.86
          c1.07-1.07,2.79-1.07,3.86,0C73.24,54.97,73.24,56.69,72.17,57.76z"/>
      </g>
    </g>
  </symbol>
  <symbol id="ADVANTAGE_2" viewBox="0 0 150 150">
    <g>
      <rect fill="none" width="150" height="150"/>
    </g>
    <g>
      <g>
        <g>
          <path fill="#000000" d="M113.46,88.52H65.38c-0.79,0-1.45-0.62-1.5-1.41c-0.18-3.06-1.64-5.92-4.02-7.84
            c-1.96-1.58-4.32-2.42-6.83-2.42c-5.76,0-10.53,4.51-10.86,10.26c-0.05,0.79-0.7,1.41-1.5,1.41h-4.12
            c-7.29,0-13.22-5.93-13.22-13.22c0-6.96,5.41-12.68,12.24-13.18c-1.55-2.84-2.36-6-2.36-9.28c0-10.76,8.76-19.52,19.52-19.52
            c2.61,0,5.13,0.51,7.51,1.51c3.18-6.8,10.09-11.27,17.67-11.27c10.28,0,18.72,7.98,19.47,18.07c0.43-0.04,0.85-0.05,1.27-0.05
            c9.44,0,17.12,7.68,17.12,17.13c0,1.18-0.12,2.36-0.37,3.52c6.37,0.94,11.27,6.45,11.27,13.07
            C126.67,82.59,120.74,88.52,113.46,88.52z M66.72,85.52h46.74c5.63,0,10.22-4.58,10.22-10.22c0-5.62-4.57-10.2-10.19-10.22
            c-0.48,0-0.93-0.23-1.21-0.62c-0.28-0.39-0.36-0.89-0.21-1.35c0.47-1.44,0.71-2.92,0.71-4.41c0-7.79-6.34-14.13-14.12-14.13
            c-0.78,0-1.59,0.08-2.47,0.23c-0.44,0.08-0.89-0.04-1.23-0.34c-0.34-0.29-0.53-0.72-0.53-1.17c0-0.07,0.01-0.14,0.01-0.2
            c0-9.13-7.41-16.54-16.52-16.54c-6.88,0-13.1,4.34-15.48,10.81c-0.15,0.4-0.46,0.72-0.87,0.88c-0.4,0.16-0.85,0.13-1.23-0.07
            c-2.38-1.24-4.94-1.86-7.6-1.86c-9.11,0-16.52,7.41-16.52,16.52c0,3.56,1.13,6.97,3.28,9.85c0.34,0.45,0.39,1.06,0.14,1.57
            c-0.25,0.51-0.77,0.83-1.34,0.83h-1.74c-5.63,0-10.22,4.58-10.22,10.22c0,5.63,4.58,10.22,10.22,10.22h2.78
            c1.07-6.65,6.83-11.67,13.7-11.67c3.16,0,6.26,1.09,8.72,3.08C64.41,79.09,66.17,82.16,66.72,85.52z"/>
        </g>
      </g>
      <g>
        <path fill="#F7961B" d="M66.87,86.94L66.87,86.94c-0.23-3.91-2.1-7.55-5.13-10c-2.46-1.99-5.56-3.08-8.72-3.08
          c-7.34,0-13.43,5.75-13.85,13.09l-0.01,0.19c-0.01,0.2-0.03,0.41-0.03,0.62c0,7.66,6.23,13.89,13.89,13.89
          c3.67,0,7.13-1.42,9.75-4c2.67-2.63,4.14-6.15,4.14-9.89c0-0.2-0.01-0.4-0.03-0.59L66.87,86.94z"/>
        <path fill="#F7961B" d="M85.37,74.81c0.11,0,0.21-0.01,0.32-0.01l0.1-0.01c7.55-0.23,13.47-6.32,13.47-13.87
          c0-7.66-6.23-13.89-13.89-13.89c-7.66,0-13.89,6.23-13.89,13.89c0,3.08,1,6,2.89,8.46C77.02,72.83,81.03,74.81,85.37,74.81z"/>
        <path fill="#F7961B" d="M85.75,98.65c-4.6,0-8.89,2.27-11.49,6.08c-1.57,2.31-2.4,5.01-2.4,7.81c0,7.66,6.23,13.89,13.89,13.89
          c7.66,0,13.89-6.23,13.89-13.89C99.64,104.88,93.41,98.65,85.75,98.65z"/>
      </g>
      <g>
        <g>
          <circle fill="#000000" cx="51.09" cy="50.92" r="5.94"/>
        </g>
      </g>
      <g>
        <g>
          <path fill="#000000" d="M75.5,107.07c-0.28,0-0.57-0.08-0.82-0.24L60.9,97.82c-0.69-0.45-0.89-1.38-0.43-2.08
            c0.45-0.69,1.38-0.89,2.08-0.43l13.78,9.01c0.69,0.45,0.89,1.38,0.43,2.08C76.47,106.83,75.99,107.07,75.5,107.07z"/>
        </g>
      </g>
      <g>
        <g>
          <path fill="#000000" d="M60.8,79.6c-0.49,0-0.97-0.24-1.26-0.68c-0.45-0.69-0.26-1.62,0.43-2.08l14.75-9.64
            c0.69-0.46,1.62-0.26,2.08,0.43c0.45,0.69,0.26,1.62-0.43,2.08l-14.75,9.64C61.37,79.52,61.08,79.6,60.8,79.6z"/>
        </g>
      </g>
      <g>
        <g>
          <path fill="#FDFEFF" d="M85.37,68.79c-2.46,0-4.73-1.12-6.24-3.08c-0.5-0.66-0.38-1.6,0.27-2.1c0.66-0.5,1.6-0.38,2.1,0.27
            c0.93,1.21,2.34,1.91,3.86,1.91l0.15-0.01c2.65-0.08,4.73-2.22,4.73-4.87c0-0.83,0.67-1.5,1.5-1.5s1.5,0.67,1.5,1.5
            c0,4.28-3.35,7.74-7.64,7.87C85.51,68.79,85.44,68.79,85.37,68.79z"/>
        </g>
      </g>
      <g>
        <g>
          <path fill="#FDFEFF" d="M53.1,95.36c-2.46,0-4.73-1.12-6.24-3.08c-0.5-0.66-0.38-1.6,0.27-2.1c0.66-0.5,1.6-0.38,2.1,0.27
            c0.93,1.21,2.34,1.91,3.86,1.91l0.15-0.01c2.65-0.08,4.73-2.22,4.73-4.87c0-0.83,0.67-1.5,1.5-1.5c0.83,0,1.5,0.67,1.5,1.5
            c0,4.28-3.35,7.74-7.64,7.87C53.25,95.35,53.18,95.36,53.1,95.36z"/>
        </g>
      </g>
      <g>
        <g>
          <path fill="#FDFEFF" d="M86.06,120.76c-2.46,0-4.73-1.12-6.24-3.08c-0.5-0.66-0.38-1.6,0.27-2.1c0.66-0.5,1.6-0.38,2.1,0.27
            c0.93,1.21,2.34,1.91,3.86,1.91l0.15-0.01c2.65-0.08,4.73-2.22,4.73-4.87c0-0.83,0.67-1.5,1.5-1.5c0.83,0,1.5,0.67,1.5,1.5
            c0,4.28-3.35,7.74-7.64,7.87C86.21,120.76,86.14,120.76,86.06,120.76z"/>
        </g>
      </g>
    </g>
  </symbol>
  <symbol id="ADVANTAGE_3" viewBox="0 0 150 150">
    <g>
      <rect fill="none" width="150" height="150"/>
    </g>
    <g>
      <g>
        <g>
          <g>
            <g>
              <path fill="#000000" d="M123.11,106.94H26.89c-1.78,0-3.21-1.44-3.21-3.21V27.62c0-1.78,1.44-3.21,3.21-3.21h96.21
                c1.78,0,3.21,1.44,3.21,3.21v76.11C126.32,105.5,124.88,106.94,123.11,106.94z M30.11,100.52h89.79V30.84H30.11V100.52z"/>
            </g>
          </g>
        </g>
      </g>
      <g>
        <g>
          <g>
            <rect x="51.95" y="119.52" fill="#000000" width="44.44" height="6.07"/>
          </g>
        </g>
      </g>
      <g>
        <g>
          <g>
            <path fill="#000000" d="M90.12,117.47c-10.38,0-20.76,0-31.14,0c1.94-2.82,3.88-5.65,5.82-8.47c6.5,0,13,0,19.49,0
              C86.24,111.82,88.18,114.64,90.12,117.47z"/>
          </g>
        </g>
      </g>
      <g id="XMLID_48_">
        <g id="XMLID_58_">
          <path fill="#F7961B" d="M113.63,95.99h-78c-0.83,0-1.5-0.67-1.5-1.5V36.93c0-0.83,0.67-1.5,1.5-1.5h78c0.83,0,1.5,0.67,1.5,1.5
            v57.56C115.13,95.32,114.46,95.99,113.63,95.99z M37.13,92.99h75V38.43h-75V92.99z"/>
        </g>
        <g id="XMLID_55_">
          <g id="XMLID_57_">
            <path fill="#F7961B" d="M82.51,95.99c-0.83,0-1.5-0.67-1.5-1.5c0-4.34-3.53-7.88-7.88-7.88c-4.34,0-7.87,3.53-7.87,7.88
              c0,0.83-0.67,1.5-1.5,1.5s-1.5-0.67-1.5-1.5c0-6,4.88-10.88,10.87-10.88s10.88,4.88,10.88,10.88
              C84.01,95.32,83.33,95.99,82.51,95.99z"/>
          </g>
          <g id="XMLID_56_">
            <path fill="#F7961B" d="M78.34,88.95c-0.37,0-0.74-0.14-1.03-0.41c-0.6-0.57-0.63-1.52-0.06-2.12l11.08-11.71
              c0.57-0.6,1.52-0.63,2.12-0.06c0.6,0.57,0.63,1.52,0.06,2.12L79.43,88.48C79.13,88.79,78.73,88.95,78.34,88.95z"/>
          </g>
        </g>
        <g id="XMLID_49_">
          <g id="XMLID_54_">
            <path fill="#F7961B" d="M74.15,60.84c-0.83,0-1.5-0.67-1.5-1.5v-9.37c0-0.83,0.67-1.5,1.5-1.5s1.5,0.67,1.5,1.5v9.37
              C75.65,60.17,74.98,60.84,74.15,60.84z"/>
          </g>
          <g id="XMLID_53_">
            <path fill="#F7961B" d="M60.7,63.52c-0.59,0-1.15-0.35-1.39-0.93l-3.59-8.66c-0.32-0.77,0.05-1.64,0.81-1.96
              c0.76-0.32,1.64,0.05,1.96,0.81l3.59,8.66c0.32,0.77-0.05,1.64-0.81,1.96C61.08,63.48,60.89,63.52,60.7,63.52z"/>
          </g>
          <g id="XMLID_52_">
            <path fill="#F7961B" d="M49.29,71.14c-0.38,0-0.77-0.15-1.06-0.44l-6.63-6.63c-0.59-0.59-0.59-1.54,0-2.12
              c0.59-0.59,1.54-0.59,2.12,0l6.63,6.63c0.59,0.59,0.59,1.54,0,2.12C50.06,70.99,49.68,71.14,49.29,71.14z"/>
          </g>
          <g id="XMLID_51_">
            <path fill="#F7961B" d="M99.01,71.14c-0.38,0-0.77-0.15-1.06-0.44c-0.59-0.59-0.59-1.54,0-2.12l6.63-6.63
              c0.59-0.59,1.54-0.59,2.12,0s0.59,1.54,0,2.12l-6.63,6.63C99.78,70.99,99.39,71.14,99.01,71.14z"/>
          </g>
          <g id="XMLID_50_">
            <path fill="#F7961B" d="M87.6,63.52c-0.19,0-0.39-0.04-0.57-0.11c-0.76-0.32-1.13-1.19-0.81-1.96l3.59-8.66
              c0.32-0.77,1.19-1.13,1.96-0.81c0.76,0.32,1.13,1.19,0.81,1.96l-3.59,8.66C88.75,63.17,88.19,63.52,87.6,63.52z"/>
          </g>
        </g>
      </g>
    </g>
  </symbol>
  <symbol id="ADVANTAGE_4" viewBox="0 0 150 150">
    <g>
      <g>
        <defs>
          <rect id="SVGID_1_" width="150" height="150"/>
        </defs>
        <clipPath id="SVGID_2_">
          <use xlink:href="#SVGID_1_"  style="overflow:visible;"/>
        </clipPath>
      </g>
      <g>
        <g>
          <polygon points="117.5,113.1 125.3,122.2 130.9,117.3 123.1,108.2 			"/>
          <path d="M124.9,102.6l-20.8-20.3c0.7-1.1,2.5-5-1-10.8c-0.3-0.6-0.7-1.1-1-1.6c-3.3-5.6-4.9-8.4-13.5-9.6
            C79.5,59,75,58.8,74.9,58.8c-0.1,0-0.2,0-0.2,0l-4.3,2.3l-3-1.5c-0.1-0.1-0.2-0.1-0.3,0c-0.1,0-0.2,0.1-0.2,0.3l-4.7,14.7
            c-0.1,0.2,0,0.4,0.2,0.5l2.7,1.7c0.2,1.1,1,7.2,1.5,11.2c0,0.3,0.1,0.7,0.1,1c0.5,3.8,0.8,6.4,6.5,14.9c1.5,2.3,2.9,4.6,4,6.7
            c3.4,6.1,6.1,10.9,11.6,8.4c6.1-2.8,15.3-9.6,17.1-10.9l5.5,6.5c0.1,0.1,0.2,0.1,0.3,0.1c0.1,0,0.1,0,0.2,0c0.1,0,0.1,0,0.1-0.1
            l12.8-11.3c0.1-0.1,0.1-0.2,0.1-0.3C125.1,102.8,125,102.7,124.9,102.6z M102.3,104.4l-9.7,6.7c-0.1,0-6.3,3.7-9.2-0.1
            c-4-5.4-12.8-18.4-8.1-23.5c0.6-0.6,1.3-1.1,2.1-1.4c1.3-0.4,2.9-0.5,4.7-0.2C89,87.2,98.1,93.9,102.3,104.4z"/>
          <g>
            <polygon points="63.4,62.6 38.3,55.3 9.8,56.7 10.2,64.1 37.4,62.8 61.1,69.7 				"/>
          </g>
          <path d="M78.3,88.4C78.3,88.4,78.3,88.4,78.3,88.4c0.6,0.8,4.3,4.9,6.9,8c2.9,3.4,5,9.7,5,9.7l2.1-1.6c0,0-1.1-3.1-3.7-8.4
            c-1.6-3.1-3.2-5.6-4.3-7.1c-0.9-0.3-1.8-0.6-2.6-0.8C80.3,88.1,79.2,88.1,78.3,88.4z"/>
        </g>
        <path class="st0" d="M117.1,34.5C106,23.4,91.2,17.3,75.6,17.3s-30.4,6.1-41.5,17.2C23,45.6,16.9,60.4,16.9,76s6.1,30.4,17.2,41.5
          c11.1,11.1,25.8,17.2,41.5,17.2s30.4-6.1,41.5-17.2c11.1-11.1,17.2-25.8,17.2-41.5S128.1,45.6,117.1,34.5z M37.1,37.5
          c10.3-10.3,24-15.9,38.5-15.9c13.8,0,26.9,5.1,37,14.5L35.6,113c-9.4-10.1-14.5-23.1-14.5-37C21.1,61.5,26.8,47.8,37.1,37.5z
          M114.1,114.5c-10.3,10.3-24,15.9-38.5,15.9c-13.8,0-26.9-5.1-37-14.5l76.9-76.9c9.4,10.1,14.5,23.1,14.5,37
          C130,90.6,124.3,104.2,114.1,114.5z" style="fill:#F7961B"/>
      </g>
    </g>
  </symbol>
  <symbol id="JOIN_TG" viewBox="0 0 50 50">
    <path class="st0" d="M18.81,43.43c-1.49,0-1.24-0.56-1.75-1.98l-4.38-14.42l33.72-20" style="fill:#EFF7FC;"/>
    <path class="st1" d="M18.81,43.43c1.15,0,1.66-0.53,2.3-1.15l6.13-5.96l-7.65-4.61" style="fill:#EFF7FC;"/>
    <linearGradient id="SVGID_1_" gradientUnits="userSpaceOnUse" x1="-931.1148" y1="561.2438" x2="-931.0416" y2="561.1039" gradientTransform="matrix(130.4927 0 0 -109.4498 121534.1641 61451.5117)">
      <stop  offset="0" style="stop-color:#EFF7FC"/>
      <stop  offset="1" style="stop-color:#FFFFFF"/>
    </linearGradient>
    <path class="st2" d="M19.59,31.71L38.12,45.4c2.11,1.17,3.64,0.56,4.17-1.96l7.54-35.54c0.77-3.1-1.18-4.5-3.2-3.58L2.33,21.39
      c-3.02,1.21-3.01,2.9-0.55,3.65l11.37,3.55l26.31-16.6c1.24-0.75,2.38-0.35,1.45,0.48" style="fill:#FFFFFF;"/>
  </symbol>
</svg>